G04 #@! TF.FileFunction,Legend,Top*
%FSLAX46Y46*%
G04 Gerber Fmt 4.6, Leading zero omitted, Abs format (unit mm)*
G04 Created by KiCad (PCBNEW 4.0.3-stable) date 10/29/16 15:55:36*
%MOMM*%
%LPD*%
G01*
G04 APERTURE LIST*
%ADD10C,0.100000*%
%ADD11C,0.150000*%
%ADD12C,0.075000*%
%ADD13C,0.002540*%
G04 APERTURE END LIST*
D10*
X153725714Y-87028381D02*
X153725714Y-86028381D01*
X154106667Y-86028381D01*
X154201905Y-86076000D01*
X154249524Y-86123619D01*
X154297143Y-86218857D01*
X154297143Y-86361714D01*
X154249524Y-86456952D01*
X154201905Y-86504571D01*
X154106667Y-86552190D01*
X153725714Y-86552190D01*
X154916190Y-86028381D02*
X155106667Y-86028381D01*
X155201905Y-86076000D01*
X155297143Y-86171238D01*
X155344762Y-86361714D01*
X155344762Y-86695048D01*
X155297143Y-86885524D01*
X155201905Y-86980762D01*
X155106667Y-87028381D01*
X154916190Y-87028381D01*
X154820952Y-86980762D01*
X154725714Y-86885524D01*
X154678095Y-86695048D01*
X154678095Y-86361714D01*
X154725714Y-86171238D01*
X154820952Y-86076000D01*
X154916190Y-86028381D01*
X155630476Y-86028381D02*
X155963809Y-87028381D01*
X156297143Y-86028381D01*
X153820952Y-87628381D02*
X154392381Y-87628381D01*
X154106666Y-88628381D02*
X154106666Y-87628381D01*
X154868571Y-88628381D02*
X154773333Y-88580762D01*
X154725714Y-88533143D01*
X154678095Y-88437905D01*
X154678095Y-88152190D01*
X154725714Y-88056952D01*
X154773333Y-88009333D01*
X154868571Y-87961714D01*
X155011429Y-87961714D01*
X155106667Y-88009333D01*
X155154286Y-88056952D01*
X155201905Y-88152190D01*
X155201905Y-88437905D01*
X155154286Y-88533143D01*
X155106667Y-88580762D01*
X155011429Y-88628381D01*
X154868571Y-88628381D01*
X155535238Y-87961714D02*
X155773333Y-88628381D01*
X156011429Y-87961714D02*
X155773333Y-88628381D01*
X155678095Y-88866476D01*
X155630476Y-88914095D01*
X155535238Y-88961714D01*
D11*
X152785112Y-94024904D02*
G75*
G03X152770000Y-91000000I2484888J1524904D01*
G01*
X152770000Y-94000000D02*
X152770000Y-91000000D01*
X157787936Y-92500000D02*
G75*
G03X157787936Y-92500000I-2517936J0D01*
G01*
X146285112Y-94024904D02*
G75*
G03X146270000Y-91000000I2484888J1524904D01*
G01*
X146270000Y-94000000D02*
X146270000Y-91000000D01*
X151287936Y-92500000D02*
G75*
G03X151287936Y-92500000I-2517936J0D01*
G01*
X139785112Y-94024904D02*
G75*
G03X139770000Y-91000000I2484888J1524904D01*
G01*
X139770000Y-94000000D02*
X139770000Y-91000000D01*
X144787936Y-92500000D02*
G75*
G03X144787936Y-92500000I-2517936J0D01*
G01*
X133285112Y-94024904D02*
G75*
G03X133270000Y-91000000I2484888J1524904D01*
G01*
X133270000Y-94000000D02*
X133270000Y-91000000D01*
X138287936Y-92500000D02*
G75*
G03X138287936Y-92500000I-2517936J0D01*
G01*
X126785112Y-94024904D02*
G75*
G03X126770000Y-91000000I2484888J1524904D01*
G01*
X126770000Y-94000000D02*
X126770000Y-91000000D01*
X131787936Y-92500000D02*
G75*
G03X131787936Y-92500000I-2517936J0D01*
G01*
X167370000Y-91820000D02*
X167370000Y-93090000D01*
X167370000Y-93090000D02*
X164830000Y-93090000D01*
X164830000Y-93090000D02*
X164830000Y-91820000D01*
X168640000Y-91820000D02*
X168640000Y-101980000D01*
X168640000Y-101980000D02*
X163560000Y-101980000D01*
X163560000Y-101980000D02*
X163560000Y-91820000D01*
X163560000Y-91820000D02*
X168640000Y-91820000D01*
X162960000Y-86730000D02*
X168040000Y-86730000D01*
X168040000Y-86730000D02*
X168040000Y-89270000D01*
X168040000Y-89270000D02*
X162960000Y-89270000D01*
X162960000Y-89270000D02*
X162960000Y-86730000D01*
X162960000Y-88000000D02*
X161690000Y-88000000D01*
X168040000Y-88000000D02*
X169310000Y-88000000D01*
X161690000Y-107270000D02*
X161690000Y-104730000D01*
X161690000Y-104730000D02*
X169310000Y-104730000D01*
X169310000Y-104730000D02*
X169310000Y-107270000D01*
X169310000Y-107270000D02*
X161690000Y-107270000D01*
X164230000Y-104730000D02*
X164230000Y-107270000D01*
X174873297Y-108362237D02*
X177701724Y-105533810D01*
X171196342Y-104685281D02*
X174095480Y-101786144D01*
X172080225Y-102514464D02*
X171182200Y-101616438D01*
X172080225Y-101616438D02*
X171182200Y-102514464D01*
X174799051Y-108351630D02*
X171206949Y-104759528D01*
X192480256Y-96200000D02*
G75*
G03X192480256Y-96200000I-8980256J0D01*
G01*
X194424953Y-96200000D02*
G75*
G03X194424953Y-96200000I-10924953J0D01*
G01*
X152880923Y-103768026D02*
X156473026Y-100175923D01*
X156473026Y-100175923D02*
X158269077Y-101971974D01*
X158269077Y-101971974D02*
X154676974Y-105564077D01*
X154676974Y-105564077D02*
X152880923Y-103768026D01*
X153778949Y-104666051D02*
X152880923Y-105564077D01*
X157371051Y-101073949D02*
X158269077Y-100175923D01*
X147800923Y-103768026D02*
X151393026Y-100175923D01*
X151393026Y-100175923D02*
X153189077Y-101971974D01*
X153189077Y-101971974D02*
X149596974Y-105564077D01*
X149596974Y-105564077D02*
X147800923Y-103768026D01*
X148698949Y-104666051D02*
X147800923Y-105564077D01*
X152291051Y-101073949D02*
X153189077Y-100175923D01*
X142720923Y-103768026D02*
X146313026Y-100175923D01*
X146313026Y-100175923D02*
X148109077Y-101971974D01*
X148109077Y-101971974D02*
X144516974Y-105564077D01*
X144516974Y-105564077D02*
X142720923Y-103768026D01*
X143618949Y-104666051D02*
X142720923Y-105564077D01*
X147211051Y-101073949D02*
X148109077Y-100175923D01*
X137640923Y-103768026D02*
X141233026Y-100175923D01*
X141233026Y-100175923D02*
X143029077Y-101971974D01*
X143029077Y-101971974D02*
X139436974Y-105564077D01*
X139436974Y-105564077D02*
X137640923Y-103768026D01*
X138538949Y-104666051D02*
X137640923Y-105564077D01*
X142131051Y-101073949D02*
X143029077Y-100175923D01*
X132560923Y-103768026D02*
X136153026Y-100175923D01*
X136153026Y-100175923D02*
X137949077Y-101971974D01*
X137949077Y-101971974D02*
X134356974Y-105564077D01*
X134356974Y-105564077D02*
X132560923Y-103768026D01*
X133458949Y-104666051D02*
X132560923Y-105564077D01*
X137051051Y-101073949D02*
X137949077Y-100175923D01*
D10*
G36*
X135487229Y-89281000D02*
X135262258Y-89281000D01*
X135037286Y-89281000D01*
X135037286Y-88442800D01*
X135037286Y-87604600D01*
X135255000Y-87604600D01*
X135472715Y-87604600D01*
X135472715Y-87640885D01*
X135472715Y-87677171D01*
X135291286Y-87677171D01*
X135109858Y-87677171D01*
X135109858Y-88029142D01*
X135109858Y-88381114D01*
X135276772Y-88381114D01*
X135443686Y-88381114D01*
X135443686Y-88421028D01*
X135443686Y-88460942D01*
X135276772Y-88460942D01*
X135109858Y-88460942D01*
X135109858Y-88831057D01*
X135109858Y-89201171D01*
X135298543Y-89201171D01*
X135487229Y-89201171D01*
X135487229Y-89241085D01*
X135487229Y-89281000D01*
X135487229Y-89281000D01*
X135487229Y-89281000D01*
G37*
X135487229Y-89281000D02*
X135262258Y-89281000D01*
X135037286Y-89281000D01*
X135037286Y-88442800D01*
X135037286Y-87604600D01*
X135255000Y-87604600D01*
X135472715Y-87604600D01*
X135472715Y-87640885D01*
X135472715Y-87677171D01*
X135291286Y-87677171D01*
X135109858Y-87677171D01*
X135109858Y-88029142D01*
X135109858Y-88381114D01*
X135276772Y-88381114D01*
X135443686Y-88381114D01*
X135443686Y-88421028D01*
X135443686Y-88460942D01*
X135276772Y-88460942D01*
X135109858Y-88460942D01*
X135109858Y-88831057D01*
X135109858Y-89201171D01*
X135298543Y-89201171D01*
X135487229Y-89201171D01*
X135487229Y-89241085D01*
X135487229Y-89281000D01*
X135487229Y-89281000D01*
G36*
X137083800Y-89281000D02*
X136858829Y-89281000D01*
X136633858Y-89281000D01*
X136633858Y-88897568D01*
X136633767Y-88814892D01*
X136633506Y-88720759D01*
X136633093Y-88618225D01*
X136632545Y-88510345D01*
X136631879Y-88400176D01*
X136631114Y-88290774D01*
X136630266Y-88185194D01*
X136629353Y-88086492D01*
X136629038Y-88055739D01*
X136624219Y-87597342D01*
X136665324Y-87597342D01*
X136706429Y-87597342D01*
X136706429Y-88399257D01*
X136706429Y-89201171D01*
X136890579Y-89201171D01*
X137074729Y-89201171D01*
X137079265Y-89223850D01*
X137082596Y-89246080D01*
X137083800Y-89263764D01*
X137083800Y-89281000D01*
X137083800Y-89281000D01*
X137083800Y-89281000D01*
G37*
X137083800Y-89281000D02*
X136858829Y-89281000D01*
X136633858Y-89281000D01*
X136633858Y-88897568D01*
X136633767Y-88814892D01*
X136633506Y-88720759D01*
X136633093Y-88618225D01*
X136632545Y-88510345D01*
X136631879Y-88400176D01*
X136631114Y-88290774D01*
X136630266Y-88185194D01*
X136629353Y-88086492D01*
X136629038Y-88055739D01*
X136624219Y-87597342D01*
X136665324Y-87597342D01*
X136706429Y-87597342D01*
X136706429Y-88399257D01*
X136706429Y-89201171D01*
X136890579Y-89201171D01*
X137074729Y-89201171D01*
X137079265Y-89223850D01*
X137082596Y-89246080D01*
X137083800Y-89263764D01*
X137083800Y-89281000D01*
X137083800Y-89281000D01*
G36*
X138651343Y-89281000D02*
X138426372Y-89281000D01*
X138201400Y-89281000D01*
X138201400Y-88442800D01*
X138201400Y-87604600D01*
X138419115Y-87604600D01*
X138636829Y-87604600D01*
X138636829Y-87640885D01*
X138636829Y-87677171D01*
X138455331Y-87677171D01*
X138273832Y-87677171D01*
X138275716Y-88027328D01*
X138277600Y-88377485D01*
X138442700Y-88379436D01*
X138607800Y-88381386D01*
X138607800Y-88421164D01*
X138607800Y-88460942D01*
X138440886Y-88460942D01*
X138273972Y-88460942D01*
X138273972Y-88831057D01*
X138273972Y-89201171D01*
X138462658Y-89201171D01*
X138651343Y-89201171D01*
X138651343Y-89241085D01*
X138651343Y-89281000D01*
X138651343Y-89281000D01*
X138651343Y-89281000D01*
G37*
X138651343Y-89281000D02*
X138426372Y-89281000D01*
X138201400Y-89281000D01*
X138201400Y-88442800D01*
X138201400Y-87604600D01*
X138419115Y-87604600D01*
X138636829Y-87604600D01*
X138636829Y-87640885D01*
X138636829Y-87677171D01*
X138455331Y-87677171D01*
X138273832Y-87677171D01*
X138275716Y-88027328D01*
X138277600Y-88377485D01*
X138442700Y-88379436D01*
X138607800Y-88381386D01*
X138607800Y-88421164D01*
X138607800Y-88460942D01*
X138440886Y-88460942D01*
X138273972Y-88460942D01*
X138273972Y-88831057D01*
X138273972Y-89201171D01*
X138462658Y-89201171D01*
X138651343Y-89201171D01*
X138651343Y-89241085D01*
X138651343Y-89281000D01*
X138651343Y-89281000D01*
G36*
X140248732Y-88127114D02*
X140216281Y-88127114D01*
X140183829Y-88127114D01*
X140181359Y-87932985D01*
X140180508Y-87873644D01*
X140179556Y-87827005D01*
X140178373Y-87791256D01*
X140176830Y-87764584D01*
X140174798Y-87745177D01*
X140172145Y-87731223D01*
X140168744Y-87720909D01*
X140165748Y-87714699D01*
X140153030Y-87696648D01*
X140136098Y-87683857D01*
X140112682Y-87675674D01*
X140080510Y-87671448D01*
X140037313Y-87670526D01*
X140013591Y-87671018D01*
X139927391Y-87673563D01*
X139906864Y-87696537D01*
X139889533Y-87724075D01*
X139878255Y-87758437D01*
X139876718Y-87771517D01*
X139875394Y-87795191D01*
X139874279Y-87829875D01*
X139873370Y-87875990D01*
X139872663Y-87933953D01*
X139872155Y-88004183D01*
X139871842Y-88087099D01*
X139871720Y-88183119D01*
X139871786Y-88292662D01*
X139872037Y-88416148D01*
X139872173Y-88464795D01*
X139872519Y-88578291D01*
X139872849Y-88678181D01*
X139873185Y-88765372D01*
X139873549Y-88840771D01*
X139873963Y-88905286D01*
X139874449Y-88959825D01*
X139875029Y-89005294D01*
X139875724Y-89042603D01*
X139876557Y-89072657D01*
X139877550Y-89096365D01*
X139878725Y-89114634D01*
X139880104Y-89128372D01*
X139881707Y-89138487D01*
X139883559Y-89145885D01*
X139885680Y-89151475D01*
X139888092Y-89156164D01*
X139888933Y-89157628D01*
X139904366Y-89178602D01*
X139923959Y-89193227D01*
X139950295Y-89202442D01*
X139985963Y-89207189D01*
X140028619Y-89208417D01*
X140066552Y-89208087D01*
X140097311Y-89206168D01*
X140121647Y-89201282D01*
X140140313Y-89192053D01*
X140154059Y-89177105D01*
X140163639Y-89155060D01*
X140169804Y-89124543D01*
X140173306Y-89084176D01*
X140174896Y-89032584D01*
X140175327Y-88968388D01*
X140175343Y-88939767D01*
X140175343Y-88751228D01*
X140208000Y-88751228D01*
X140240658Y-88751228D01*
X140240658Y-88960384D01*
X140240658Y-89169540D01*
X140220700Y-89208570D01*
X140208329Y-89231569D01*
X140196460Y-89248782D01*
X140182798Y-89261081D01*
X140165047Y-89269338D01*
X140140913Y-89274423D01*
X140108101Y-89277208D01*
X140064316Y-89278563D01*
X140035137Y-89279010D01*
X139976512Y-89279163D01*
X139931976Y-89277882D01*
X139901173Y-89275149D01*
X139885746Y-89271753D01*
X139856827Y-89253982D01*
X139832350Y-89224165D01*
X139813932Y-89184488D01*
X139808952Y-89167654D01*
X139807048Y-89158867D01*
X139805377Y-89147770D01*
X139803925Y-89133479D01*
X139802684Y-89115105D01*
X139801641Y-89091762D01*
X139800786Y-89062563D01*
X139800107Y-89026621D01*
X139799594Y-88983049D01*
X139799234Y-88930960D01*
X139799018Y-88869468D01*
X139798934Y-88797685D01*
X139798971Y-88714725D01*
X139799118Y-88619701D01*
X139799364Y-88511726D01*
X139799611Y-88420169D01*
X139801600Y-87717085D01*
X139821908Y-87675732D01*
X139835881Y-87649933D01*
X139850474Y-87630774D01*
X139868108Y-87617215D01*
X139891204Y-87608216D01*
X139922183Y-87602738D01*
X139963465Y-87599741D01*
X140001652Y-87598518D01*
X140047978Y-87598108D01*
X140088160Y-87599049D01*
X140119330Y-87601220D01*
X140137394Y-87604152D01*
X140176807Y-87622087D01*
X140209859Y-87652211D01*
X140228276Y-87679898D01*
X140232938Y-87689236D01*
X140236625Y-87699021D01*
X140239472Y-87711051D01*
X140241618Y-87727128D01*
X140243201Y-87749051D01*
X140244357Y-87778619D01*
X140245224Y-87817634D01*
X140245941Y-87867894D01*
X140246509Y-87918471D01*
X140248732Y-88127114D01*
X140248732Y-88127114D01*
X140248732Y-88127114D01*
G37*
X140248732Y-88127114D02*
X140216281Y-88127114D01*
X140183829Y-88127114D01*
X140181359Y-87932985D01*
X140180508Y-87873644D01*
X140179556Y-87827005D01*
X140178373Y-87791256D01*
X140176830Y-87764584D01*
X140174798Y-87745177D01*
X140172145Y-87731223D01*
X140168744Y-87720909D01*
X140165748Y-87714699D01*
X140153030Y-87696648D01*
X140136098Y-87683857D01*
X140112682Y-87675674D01*
X140080510Y-87671448D01*
X140037313Y-87670526D01*
X140013591Y-87671018D01*
X139927391Y-87673563D01*
X139906864Y-87696537D01*
X139889533Y-87724075D01*
X139878255Y-87758437D01*
X139876718Y-87771517D01*
X139875394Y-87795191D01*
X139874279Y-87829875D01*
X139873370Y-87875990D01*
X139872663Y-87933953D01*
X139872155Y-88004183D01*
X139871842Y-88087099D01*
X139871720Y-88183119D01*
X139871786Y-88292662D01*
X139872037Y-88416148D01*
X139872173Y-88464795D01*
X139872519Y-88578291D01*
X139872849Y-88678181D01*
X139873185Y-88765372D01*
X139873549Y-88840771D01*
X139873963Y-88905286D01*
X139874449Y-88959825D01*
X139875029Y-89005294D01*
X139875724Y-89042603D01*
X139876557Y-89072657D01*
X139877550Y-89096365D01*
X139878725Y-89114634D01*
X139880104Y-89128372D01*
X139881707Y-89138487D01*
X139883559Y-89145885D01*
X139885680Y-89151475D01*
X139888092Y-89156164D01*
X139888933Y-89157628D01*
X139904366Y-89178602D01*
X139923959Y-89193227D01*
X139950295Y-89202442D01*
X139985963Y-89207189D01*
X140028619Y-89208417D01*
X140066552Y-89208087D01*
X140097311Y-89206168D01*
X140121647Y-89201282D01*
X140140313Y-89192053D01*
X140154059Y-89177105D01*
X140163639Y-89155060D01*
X140169804Y-89124543D01*
X140173306Y-89084176D01*
X140174896Y-89032584D01*
X140175327Y-88968388D01*
X140175343Y-88939767D01*
X140175343Y-88751228D01*
X140208000Y-88751228D01*
X140240658Y-88751228D01*
X140240658Y-88960384D01*
X140240658Y-89169540D01*
X140220700Y-89208570D01*
X140208329Y-89231569D01*
X140196460Y-89248782D01*
X140182798Y-89261081D01*
X140165047Y-89269338D01*
X140140913Y-89274423D01*
X140108101Y-89277208D01*
X140064316Y-89278563D01*
X140035137Y-89279010D01*
X139976512Y-89279163D01*
X139931976Y-89277882D01*
X139901173Y-89275149D01*
X139885746Y-89271753D01*
X139856827Y-89253982D01*
X139832350Y-89224165D01*
X139813932Y-89184488D01*
X139808952Y-89167654D01*
X139807048Y-89158867D01*
X139805377Y-89147770D01*
X139803925Y-89133479D01*
X139802684Y-89115105D01*
X139801641Y-89091762D01*
X139800786Y-89062563D01*
X139800107Y-89026621D01*
X139799594Y-88983049D01*
X139799234Y-88930960D01*
X139799018Y-88869468D01*
X139798934Y-88797685D01*
X139798971Y-88714725D01*
X139799118Y-88619701D01*
X139799364Y-88511726D01*
X139799611Y-88420169D01*
X139801600Y-87717085D01*
X139821908Y-87675732D01*
X139835881Y-87649933D01*
X139850474Y-87630774D01*
X139868108Y-87617215D01*
X139891204Y-87608216D01*
X139922183Y-87602738D01*
X139963465Y-87599741D01*
X140001652Y-87598518D01*
X140047978Y-87598108D01*
X140088160Y-87599049D01*
X140119330Y-87601220D01*
X140137394Y-87604152D01*
X140176807Y-87622087D01*
X140209859Y-87652211D01*
X140228276Y-87679898D01*
X140232938Y-87689236D01*
X140236625Y-87699021D01*
X140239472Y-87711051D01*
X140241618Y-87727128D01*
X140243201Y-87749051D01*
X140244357Y-87778619D01*
X140245224Y-87817634D01*
X140245941Y-87867894D01*
X140246509Y-87918471D01*
X140248732Y-88127114D01*
X140248732Y-88127114D01*
G36*
X141837229Y-87677171D02*
X141739258Y-87677171D01*
X141641286Y-87677171D01*
X141641286Y-88479085D01*
X141641286Y-89281000D01*
X141608629Y-89281000D01*
X141575972Y-89281000D01*
X141575972Y-88479085D01*
X141575972Y-87677171D01*
X141481629Y-87677171D01*
X141387286Y-87677171D01*
X141387286Y-87640885D01*
X141387286Y-87604600D01*
X141612258Y-87604600D01*
X141837229Y-87604600D01*
X141837229Y-87640885D01*
X141837229Y-87677171D01*
X141837229Y-87677171D01*
X141837229Y-87677171D01*
G37*
X141837229Y-87677171D02*
X141739258Y-87677171D01*
X141641286Y-87677171D01*
X141641286Y-88479085D01*
X141641286Y-89281000D01*
X141608629Y-89281000D01*
X141575972Y-89281000D01*
X141575972Y-88479085D01*
X141575972Y-87677171D01*
X141481629Y-87677171D01*
X141387286Y-87677171D01*
X141387286Y-87640885D01*
X141387286Y-87604600D01*
X141612258Y-87604600D01*
X141837229Y-87604600D01*
X141837229Y-87640885D01*
X141837229Y-87677171D01*
X141837229Y-87677171D01*
G36*
X143482205Y-89275378D02*
X143475936Y-89279225D01*
X143460156Y-89280777D01*
X143442036Y-89281000D01*
X143416608Y-89280169D01*
X143402248Y-89277072D01*
X143395574Y-89270804D01*
X143394604Y-89268300D01*
X143392035Y-89257726D01*
X143387000Y-89235165D01*
X143379979Y-89202844D01*
X143371455Y-89162987D01*
X143361909Y-89117820D01*
X143357322Y-89095942D01*
X143339872Y-89013856D01*
X143322617Y-88935221D01*
X143305925Y-88861584D01*
X143290168Y-88794492D01*
X143275716Y-88735493D01*
X143262939Y-88686134D01*
X143252208Y-88647962D01*
X143244053Y-88622948D01*
X143231273Y-88595416D01*
X143215254Y-88569748D01*
X143204766Y-88557100D01*
X143192293Y-88545380D01*
X143180933Y-88538368D01*
X143166474Y-88534859D01*
X143144707Y-88533644D01*
X143122469Y-88533514D01*
X143063686Y-88533514D01*
X143063686Y-88907257D01*
X143063686Y-89281000D01*
X143031029Y-89281000D01*
X142998372Y-89281000D01*
X142998372Y-88438324D01*
X142998372Y-87595648D01*
X143141873Y-87598472D01*
X143191006Y-87599497D01*
X143227975Y-87600569D01*
X143255125Y-87601991D01*
X143274804Y-87604065D01*
X143289358Y-87607096D01*
X143301135Y-87611386D01*
X143312481Y-87617236D01*
X143319720Y-87621424D01*
X143346429Y-87642534D01*
X143369190Y-87672877D01*
X143388635Y-87713768D01*
X143405394Y-87766521D01*
X143419545Y-87829571D01*
X143426112Y-87873925D01*
X143431113Y-87928485D01*
X143434365Y-87989008D01*
X143435686Y-88051253D01*
X143434893Y-88110978D01*
X143433185Y-88146016D01*
X143423686Y-88238895D01*
X143408325Y-88319206D01*
X143387168Y-88386776D01*
X143364488Y-88432882D01*
X143364488Y-88025514D01*
X143363491Y-87944998D01*
X143359828Y-87877416D01*
X143353145Y-87821369D01*
X143343090Y-87775463D01*
X143329307Y-87738301D01*
X143311443Y-87708486D01*
X143289143Y-87684623D01*
X143275339Y-87673865D01*
X143261485Y-87664606D01*
X143248912Y-87658276D01*
X143234354Y-87654213D01*
X143214539Y-87651754D01*
X143186201Y-87650234D01*
X143153782Y-87649210D01*
X143063686Y-87646650D01*
X143063686Y-88057063D01*
X143063686Y-88467475D01*
X143105415Y-88470230D01*
X143143084Y-88471314D01*
X143180196Y-88469966D01*
X143212598Y-88466522D01*
X143236139Y-88461320D01*
X143241486Y-88459162D01*
X143266834Y-88443078D01*
X143288053Y-88421191D01*
X143306082Y-88391680D01*
X143321860Y-88352726D01*
X143336328Y-88302509D01*
X143347357Y-88254114D01*
X143353398Y-88223285D01*
X143357841Y-88194560D01*
X143360929Y-88164733D01*
X143362900Y-88130602D01*
X143363995Y-88088960D01*
X143364454Y-88036605D01*
X143364488Y-88025514D01*
X143364488Y-88432882D01*
X143360282Y-88441433D01*
X143327734Y-88483004D01*
X143292730Y-88509607D01*
X143287770Y-88514455D01*
X143287603Y-88522960D01*
X143292922Y-88538026D01*
X143304425Y-88562556D01*
X143306343Y-88566455D01*
X143316649Y-88588511D01*
X143326378Y-88612177D01*
X143335923Y-88638916D01*
X143345677Y-88670186D01*
X143356032Y-88707449D01*
X143367382Y-88752164D01*
X143380120Y-88805792D01*
X143394639Y-88869794D01*
X143411333Y-88945629D01*
X143423457Y-89001600D01*
X143436228Y-89060705D01*
X143448147Y-89115645D01*
X143458844Y-89164722D01*
X143467945Y-89206242D01*
X143475081Y-89238511D01*
X143479879Y-89259831D01*
X143481904Y-89268300D01*
X143482205Y-89275378D01*
X143482205Y-89275378D01*
X143482205Y-89275378D01*
G37*
X143482205Y-89275378D02*
X143475936Y-89279225D01*
X143460156Y-89280777D01*
X143442036Y-89281000D01*
X143416608Y-89280169D01*
X143402248Y-89277072D01*
X143395574Y-89270804D01*
X143394604Y-89268300D01*
X143392035Y-89257726D01*
X143387000Y-89235165D01*
X143379979Y-89202844D01*
X143371455Y-89162987D01*
X143361909Y-89117820D01*
X143357322Y-89095942D01*
X143339872Y-89013856D01*
X143322617Y-88935221D01*
X143305925Y-88861584D01*
X143290168Y-88794492D01*
X143275716Y-88735493D01*
X143262939Y-88686134D01*
X143252208Y-88647962D01*
X143244053Y-88622948D01*
X143231273Y-88595416D01*
X143215254Y-88569748D01*
X143204766Y-88557100D01*
X143192293Y-88545380D01*
X143180933Y-88538368D01*
X143166474Y-88534859D01*
X143144707Y-88533644D01*
X143122469Y-88533514D01*
X143063686Y-88533514D01*
X143063686Y-88907257D01*
X143063686Y-89281000D01*
X143031029Y-89281000D01*
X142998372Y-89281000D01*
X142998372Y-88438324D01*
X142998372Y-87595648D01*
X143141873Y-87598472D01*
X143191006Y-87599497D01*
X143227975Y-87600569D01*
X143255125Y-87601991D01*
X143274804Y-87604065D01*
X143289358Y-87607096D01*
X143301135Y-87611386D01*
X143312481Y-87617236D01*
X143319720Y-87621424D01*
X143346429Y-87642534D01*
X143369190Y-87672877D01*
X143388635Y-87713768D01*
X143405394Y-87766521D01*
X143419545Y-87829571D01*
X143426112Y-87873925D01*
X143431113Y-87928485D01*
X143434365Y-87989008D01*
X143435686Y-88051253D01*
X143434893Y-88110978D01*
X143433185Y-88146016D01*
X143423686Y-88238895D01*
X143408325Y-88319206D01*
X143387168Y-88386776D01*
X143364488Y-88432882D01*
X143364488Y-88025514D01*
X143363491Y-87944998D01*
X143359828Y-87877416D01*
X143353145Y-87821369D01*
X143343090Y-87775463D01*
X143329307Y-87738301D01*
X143311443Y-87708486D01*
X143289143Y-87684623D01*
X143275339Y-87673865D01*
X143261485Y-87664606D01*
X143248912Y-87658276D01*
X143234354Y-87654213D01*
X143214539Y-87651754D01*
X143186201Y-87650234D01*
X143153782Y-87649210D01*
X143063686Y-87646650D01*
X143063686Y-88057063D01*
X143063686Y-88467475D01*
X143105415Y-88470230D01*
X143143084Y-88471314D01*
X143180196Y-88469966D01*
X143212598Y-88466522D01*
X143236139Y-88461320D01*
X143241486Y-88459162D01*
X143266834Y-88443078D01*
X143288053Y-88421191D01*
X143306082Y-88391680D01*
X143321860Y-88352726D01*
X143336328Y-88302509D01*
X143347357Y-88254114D01*
X143353398Y-88223285D01*
X143357841Y-88194560D01*
X143360929Y-88164733D01*
X143362900Y-88130602D01*
X143363995Y-88088960D01*
X143364454Y-88036605D01*
X143364488Y-88025514D01*
X143364488Y-88432882D01*
X143360282Y-88441433D01*
X143327734Y-88483004D01*
X143292730Y-88509607D01*
X143287770Y-88514455D01*
X143287603Y-88522960D01*
X143292922Y-88538026D01*
X143304425Y-88562556D01*
X143306343Y-88566455D01*
X143316649Y-88588511D01*
X143326378Y-88612177D01*
X143335923Y-88638916D01*
X143345677Y-88670186D01*
X143356032Y-88707449D01*
X143367382Y-88752164D01*
X143380120Y-88805792D01*
X143394639Y-88869794D01*
X143411333Y-88945629D01*
X143423457Y-89001600D01*
X143436228Y-89060705D01*
X143448147Y-89115645D01*
X143458844Y-89164722D01*
X143467945Y-89206242D01*
X143475081Y-89238511D01*
X143479879Y-89259831D01*
X143481904Y-89268300D01*
X143482205Y-89275378D01*
X143482205Y-89275378D01*
G36*
X145034000Y-89161257D02*
X145018336Y-89190285D01*
X144989385Y-89230828D01*
X144968747Y-89247568D01*
X144968747Y-88208631D01*
X144968728Y-88114853D01*
X144968591Y-88033079D01*
X144968274Y-87962470D01*
X144967712Y-87902190D01*
X144966843Y-87851401D01*
X144965603Y-87809267D01*
X144963929Y-87774951D01*
X144961757Y-87747615D01*
X144959023Y-87726422D01*
X144955666Y-87710535D01*
X144951620Y-87699118D01*
X144946823Y-87691332D01*
X144941212Y-87686342D01*
X144934723Y-87683309D01*
X144927292Y-87681397D01*
X144918857Y-87679769D01*
X144911342Y-87678107D01*
X144886207Y-87673876D01*
X144853499Y-87671253D01*
X144817184Y-87670219D01*
X144781224Y-87670753D01*
X144749583Y-87672837D01*
X144726224Y-87676448D01*
X144718315Y-87679092D01*
X144704856Y-87690561D01*
X144690081Y-87710207D01*
X144682029Y-87724342D01*
X144663886Y-87760628D01*
X144661743Y-88405049D01*
X144661458Y-88515474D01*
X144661354Y-88618969D01*
X144661426Y-88714706D01*
X144661668Y-88801857D01*
X144662075Y-88879596D01*
X144662639Y-88947093D01*
X144663357Y-89003522D01*
X144664222Y-89048054D01*
X144665228Y-89079863D01*
X144666369Y-89098119D01*
X144666567Y-89099745D01*
X144676578Y-89144188D01*
X144692706Y-89175886D01*
X144715300Y-89195411D01*
X144727811Y-89200419D01*
X144748697Y-89204135D01*
X144778353Y-89206505D01*
X144812876Y-89207554D01*
X144848361Y-89207304D01*
X144880903Y-89205781D01*
X144906598Y-89203008D01*
X144921117Y-89199233D01*
X144936471Y-89187045D01*
X144951476Y-89168566D01*
X144953775Y-89164869D01*
X144956247Y-89160447D01*
X144958429Y-89155523D01*
X144960341Y-89149216D01*
X144961998Y-89140643D01*
X144963421Y-89128922D01*
X144964625Y-89113172D01*
X144965631Y-89092512D01*
X144966455Y-89066058D01*
X144967116Y-89032929D01*
X144967631Y-88992244D01*
X144968019Y-88943119D01*
X144968298Y-88884675D01*
X144968486Y-88816028D01*
X144968601Y-88736297D01*
X144968660Y-88644600D01*
X144968683Y-88540055D01*
X144968686Y-88435542D01*
X144968712Y-88315248D01*
X144968747Y-88208631D01*
X144968747Y-89247568D01*
X144952856Y-89260459D01*
X144934448Y-89269729D01*
X144914757Y-89274574D01*
X144884311Y-89278123D01*
X144846628Y-89280364D01*
X144805222Y-89281283D01*
X144763610Y-89280871D01*
X144725305Y-89279113D01*
X144693826Y-89276000D01*
X144672686Y-89271518D01*
X144670390Y-89270626D01*
X144650381Y-89257643D01*
X144632799Y-89239643D01*
X144632138Y-89238733D01*
X144626140Y-89230395D01*
X144620823Y-89222636D01*
X144616148Y-89214575D01*
X144612071Y-89205333D01*
X144608553Y-89194028D01*
X144605552Y-89179779D01*
X144603027Y-89161707D01*
X144600937Y-89138930D01*
X144599242Y-89110569D01*
X144597899Y-89075742D01*
X144596869Y-89033569D01*
X144596109Y-88983170D01*
X144595580Y-88923664D01*
X144595239Y-88854171D01*
X144595046Y-88773809D01*
X144594959Y-88681699D01*
X144594939Y-88576959D01*
X144594943Y-88458710D01*
X144594943Y-88440915D01*
X144594996Y-88312170D01*
X144595158Y-88197388D01*
X144595435Y-88096017D01*
X144595835Y-88007507D01*
X144596362Y-87931307D01*
X144597024Y-87866864D01*
X144597827Y-87813629D01*
X144598776Y-87771050D01*
X144599879Y-87738575D01*
X144601141Y-87715655D01*
X144602568Y-87701736D01*
X144603366Y-87697915D01*
X144613452Y-87675086D01*
X144629040Y-87650376D01*
X144636175Y-87641313D01*
X144652188Y-87625691D01*
X144671272Y-87613997D01*
X144695509Y-87605808D01*
X144726981Y-87600707D01*
X144767770Y-87598273D01*
X144819960Y-87598085D01*
X144847793Y-87598623D01*
X144897652Y-87600424D01*
X144935352Y-87603613D01*
X144963234Y-87608999D01*
X144983641Y-87617394D01*
X144998915Y-87629606D01*
X145011400Y-87646446D01*
X145017601Y-87657363D01*
X145034000Y-87688057D01*
X145034000Y-88424657D01*
X145034000Y-89161257D01*
X145034000Y-89161257D01*
X145034000Y-89161257D01*
G37*
X145034000Y-89161257D02*
X145018336Y-89190285D01*
X144989385Y-89230828D01*
X144968747Y-89247568D01*
X144968747Y-88208631D01*
X144968728Y-88114853D01*
X144968591Y-88033079D01*
X144968274Y-87962470D01*
X144967712Y-87902190D01*
X144966843Y-87851401D01*
X144965603Y-87809267D01*
X144963929Y-87774951D01*
X144961757Y-87747615D01*
X144959023Y-87726422D01*
X144955666Y-87710535D01*
X144951620Y-87699118D01*
X144946823Y-87691332D01*
X144941212Y-87686342D01*
X144934723Y-87683309D01*
X144927292Y-87681397D01*
X144918857Y-87679769D01*
X144911342Y-87678107D01*
X144886207Y-87673876D01*
X144853499Y-87671253D01*
X144817184Y-87670219D01*
X144781224Y-87670753D01*
X144749583Y-87672837D01*
X144726224Y-87676448D01*
X144718315Y-87679092D01*
X144704856Y-87690561D01*
X144690081Y-87710207D01*
X144682029Y-87724342D01*
X144663886Y-87760628D01*
X144661743Y-88405049D01*
X144661458Y-88515474D01*
X144661354Y-88618969D01*
X144661426Y-88714706D01*
X144661668Y-88801857D01*
X144662075Y-88879596D01*
X144662639Y-88947093D01*
X144663357Y-89003522D01*
X144664222Y-89048054D01*
X144665228Y-89079863D01*
X144666369Y-89098119D01*
X144666567Y-89099745D01*
X144676578Y-89144188D01*
X144692706Y-89175886D01*
X144715300Y-89195411D01*
X144727811Y-89200419D01*
X144748697Y-89204135D01*
X144778353Y-89206505D01*
X144812876Y-89207554D01*
X144848361Y-89207304D01*
X144880903Y-89205781D01*
X144906598Y-89203008D01*
X144921117Y-89199233D01*
X144936471Y-89187045D01*
X144951476Y-89168566D01*
X144953775Y-89164869D01*
X144956247Y-89160447D01*
X144958429Y-89155523D01*
X144960341Y-89149216D01*
X144961998Y-89140643D01*
X144963421Y-89128922D01*
X144964625Y-89113172D01*
X144965631Y-89092512D01*
X144966455Y-89066058D01*
X144967116Y-89032929D01*
X144967631Y-88992244D01*
X144968019Y-88943119D01*
X144968298Y-88884675D01*
X144968486Y-88816028D01*
X144968601Y-88736297D01*
X144968660Y-88644600D01*
X144968683Y-88540055D01*
X144968686Y-88435542D01*
X144968712Y-88315248D01*
X144968747Y-88208631D01*
X144968747Y-89247568D01*
X144952856Y-89260459D01*
X144934448Y-89269729D01*
X144914757Y-89274574D01*
X144884311Y-89278123D01*
X144846628Y-89280364D01*
X144805222Y-89281283D01*
X144763610Y-89280871D01*
X144725305Y-89279113D01*
X144693826Y-89276000D01*
X144672686Y-89271518D01*
X144670390Y-89270626D01*
X144650381Y-89257643D01*
X144632799Y-89239643D01*
X144632138Y-89238733D01*
X144626140Y-89230395D01*
X144620823Y-89222636D01*
X144616148Y-89214575D01*
X144612071Y-89205333D01*
X144608553Y-89194028D01*
X144605552Y-89179779D01*
X144603027Y-89161707D01*
X144600937Y-89138930D01*
X144599242Y-89110569D01*
X144597899Y-89075742D01*
X144596869Y-89033569D01*
X144596109Y-88983170D01*
X144595580Y-88923664D01*
X144595239Y-88854171D01*
X144595046Y-88773809D01*
X144594959Y-88681699D01*
X144594939Y-88576959D01*
X144594943Y-88458710D01*
X144594943Y-88440915D01*
X144594996Y-88312170D01*
X144595158Y-88197388D01*
X144595435Y-88096017D01*
X144595835Y-88007507D01*
X144596362Y-87931307D01*
X144597024Y-87866864D01*
X144597827Y-87813629D01*
X144598776Y-87771050D01*
X144599879Y-87738575D01*
X144601141Y-87715655D01*
X144602568Y-87701736D01*
X144603366Y-87697915D01*
X144613452Y-87675086D01*
X144629040Y-87650376D01*
X144636175Y-87641313D01*
X144652188Y-87625691D01*
X144671272Y-87613997D01*
X144695509Y-87605808D01*
X144726981Y-87600707D01*
X144767770Y-87598273D01*
X144819960Y-87598085D01*
X144847793Y-87598623D01*
X144897652Y-87600424D01*
X144935352Y-87603613D01*
X144963234Y-87608999D01*
X144983641Y-87617394D01*
X144998915Y-87629606D01*
X145011400Y-87646446D01*
X145017601Y-87657363D01*
X145034000Y-87688057D01*
X145034000Y-88424657D01*
X145034000Y-89161257D01*
X145034000Y-89161257D01*
G36*
X146634200Y-89281000D02*
X146603053Y-89281000D01*
X146571905Y-89281000D01*
X146421316Y-88626042D01*
X146399369Y-88530731D01*
X146378245Y-88439278D01*
X146358184Y-88352696D01*
X146339422Y-88272000D01*
X146322198Y-88198203D01*
X146306749Y-88132319D01*
X146293312Y-88075360D01*
X146282127Y-88028342D01*
X146273430Y-87992277D01*
X146267459Y-87968179D01*
X146264452Y-87957061D01*
X146264269Y-87956571D01*
X146263217Y-87961283D01*
X146262227Y-87979799D01*
X146261305Y-88011411D01*
X146260459Y-88055407D01*
X146259696Y-88111079D01*
X146259025Y-88177717D01*
X146258452Y-88254610D01*
X146257986Y-88341050D01*
X146257633Y-88436327D01*
X146257402Y-88539731D01*
X146257320Y-88611528D01*
X146256829Y-89281000D01*
X146220543Y-89281000D01*
X146184258Y-89281000D01*
X146184258Y-88442800D01*
X146184258Y-87604600D01*
X146222904Y-87604600D01*
X146261550Y-87604600D01*
X146404651Y-88226900D01*
X146426044Y-88319780D01*
X146446613Y-88408790D01*
X146466113Y-88492889D01*
X146484300Y-88571034D01*
X146500930Y-88642185D01*
X146515757Y-88705299D01*
X146528538Y-88759336D01*
X146539027Y-88803254D01*
X146546980Y-88836012D01*
X146552152Y-88856568D01*
X146554199Y-88863714D01*
X146555273Y-88859061D01*
X146556283Y-88840626D01*
X146557221Y-88809139D01*
X146558080Y-88765332D01*
X146558850Y-88709936D01*
X146559523Y-88643683D01*
X146560093Y-88567303D01*
X146560550Y-88481528D01*
X146560886Y-88387089D01*
X146561093Y-88284718D01*
X146561138Y-88241414D01*
X146561629Y-87604600D01*
X146597915Y-87604600D01*
X146634200Y-87604600D01*
X146634200Y-88442800D01*
X146634200Y-89281000D01*
X146634200Y-89281000D01*
X146634200Y-89281000D01*
G37*
X146634200Y-89281000D02*
X146603053Y-89281000D01*
X146571905Y-89281000D01*
X146421316Y-88626042D01*
X146399369Y-88530731D01*
X146378245Y-88439278D01*
X146358184Y-88352696D01*
X146339422Y-88272000D01*
X146322198Y-88198203D01*
X146306749Y-88132319D01*
X146293312Y-88075360D01*
X146282127Y-88028342D01*
X146273430Y-87992277D01*
X146267459Y-87968179D01*
X146264452Y-87957061D01*
X146264269Y-87956571D01*
X146263217Y-87961283D01*
X146262227Y-87979799D01*
X146261305Y-88011411D01*
X146260459Y-88055407D01*
X146259696Y-88111079D01*
X146259025Y-88177717D01*
X146258452Y-88254610D01*
X146257986Y-88341050D01*
X146257633Y-88436327D01*
X146257402Y-88539731D01*
X146257320Y-88611528D01*
X146256829Y-89281000D01*
X146220543Y-89281000D01*
X146184258Y-89281000D01*
X146184258Y-88442800D01*
X146184258Y-87604600D01*
X146222904Y-87604600D01*
X146261550Y-87604600D01*
X146404651Y-88226900D01*
X146426044Y-88319780D01*
X146446613Y-88408790D01*
X146466113Y-88492889D01*
X146484300Y-88571034D01*
X146500930Y-88642185D01*
X146515757Y-88705299D01*
X146528538Y-88759336D01*
X146539027Y-88803254D01*
X146546980Y-88836012D01*
X146552152Y-88856568D01*
X146554199Y-88863714D01*
X146555273Y-88859061D01*
X146556283Y-88840626D01*
X146557221Y-88809139D01*
X146558080Y-88765332D01*
X146558850Y-88709936D01*
X146559523Y-88643683D01*
X146560093Y-88567303D01*
X146560550Y-88481528D01*
X146560886Y-88387089D01*
X146561093Y-88284718D01*
X146561138Y-88241414D01*
X146561629Y-87604600D01*
X146597915Y-87604600D01*
X146634200Y-87604600D01*
X146634200Y-88442800D01*
X146634200Y-89281000D01*
X146634200Y-89281000D01*
G36*
X147831629Y-89281000D02*
X147796518Y-89281000D01*
X147761406Y-89281000D01*
X147756615Y-89036071D01*
X147755844Y-88988874D01*
X147755111Y-88928908D01*
X147754426Y-88857914D01*
X147753799Y-88777638D01*
X147753240Y-88689824D01*
X147752758Y-88596215D01*
X147752365Y-88498555D01*
X147752070Y-88398588D01*
X147751882Y-88298058D01*
X147751812Y-88198709D01*
X147751812Y-88194242D01*
X147751800Y-87597342D01*
X147791715Y-87597342D01*
X147831629Y-87597342D01*
X147831629Y-88439171D01*
X147831629Y-89281000D01*
X147831629Y-89281000D01*
X147831629Y-89281000D01*
G37*
X147831629Y-89281000D02*
X147796518Y-89281000D01*
X147761406Y-89281000D01*
X147756615Y-89036071D01*
X147755844Y-88988874D01*
X147755111Y-88928908D01*
X147754426Y-88857914D01*
X147753799Y-88777638D01*
X147753240Y-88689824D01*
X147752758Y-88596215D01*
X147752365Y-88498555D01*
X147752070Y-88398588D01*
X147751882Y-88298058D01*
X147751812Y-88198709D01*
X147751812Y-88194242D01*
X147751800Y-87597342D01*
X147791715Y-87597342D01*
X147831629Y-87597342D01*
X147831629Y-88439171D01*
X147831629Y-89281000D01*
X147831629Y-89281000D01*
G36*
X149439086Y-88127120D02*
X149409330Y-88127117D01*
X149379574Y-88127114D01*
X149374463Y-87932985D01*
X149372757Y-87872815D01*
X149371078Y-87825377D01*
X149369280Y-87788893D01*
X149367220Y-87761583D01*
X149364751Y-87741665D01*
X149361729Y-87727361D01*
X149358010Y-87716890D01*
X149356642Y-87714047D01*
X149344693Y-87696686D01*
X149327947Y-87684260D01*
X149304289Y-87676187D01*
X149271604Y-87671887D01*
X149227776Y-87670779D01*
X149200716Y-87671249D01*
X149164160Y-87672358D01*
X149139200Y-87673783D01*
X149122923Y-87676181D01*
X149112415Y-87680206D01*
X149104763Y-87686514D01*
X149098214Y-87694302D01*
X149084614Y-87716037D01*
X149074011Y-87740694D01*
X149073513Y-87742302D01*
X149071974Y-87752657D01*
X149070611Y-87773159D01*
X149069418Y-87804258D01*
X149068388Y-87846405D01*
X149067518Y-87900050D01*
X149066802Y-87965644D01*
X149066235Y-88043637D01*
X149065811Y-88134479D01*
X149065526Y-88238621D01*
X149065374Y-88356514D01*
X149065343Y-88446793D01*
X149065349Y-88561167D01*
X149065378Y-88661934D01*
X149065450Y-88750001D01*
X149065584Y-88826276D01*
X149065799Y-88891666D01*
X149066114Y-88947079D01*
X149066547Y-88993421D01*
X149067119Y-89031601D01*
X149067847Y-89062526D01*
X149068752Y-89087102D01*
X149069852Y-89106238D01*
X149071165Y-89120840D01*
X149072712Y-89131817D01*
X149074511Y-89140075D01*
X149076581Y-89146521D01*
X149078941Y-89152064D01*
X149080187Y-89154681D01*
X149093793Y-89176129D01*
X149112105Y-89191355D01*
X149137456Y-89201231D01*
X149172178Y-89206627D01*
X149218601Y-89208414D01*
X149224064Y-89208428D01*
X149268160Y-89207480D01*
X149300351Y-89204088D01*
X149323158Y-89197427D01*
X149339100Y-89186674D01*
X149350698Y-89171004D01*
X149353228Y-89166194D01*
X149357297Y-89156599D01*
X149360507Y-89144848D01*
X149362988Y-89129102D01*
X149364869Y-89107520D01*
X149366279Y-89078264D01*
X149367348Y-89039493D01*
X149368205Y-88989368D01*
X149368762Y-88945357D01*
X149371009Y-88751228D01*
X149403233Y-88751228D01*
X149435458Y-88751228D01*
X149435280Y-88945357D01*
X149434995Y-89012700D01*
X149434138Y-89067268D01*
X149432503Y-89110796D01*
X149429883Y-89145019D01*
X149426073Y-89171671D01*
X149420865Y-89192486D01*
X149414053Y-89209201D01*
X149405430Y-89223550D01*
X149401548Y-89228858D01*
X149386855Y-89246852D01*
X149372511Y-89260163D01*
X149356055Y-89269487D01*
X149335028Y-89275519D01*
X149306969Y-89278954D01*
X149269419Y-89280488D01*
X149219917Y-89280815D01*
X149217743Y-89280813D01*
X149170974Y-89280520D01*
X149136113Y-89279604D01*
X149110558Y-89277828D01*
X149091709Y-89274960D01*
X149076965Y-89270763D01*
X149068668Y-89267357D01*
X149047029Y-89254345D01*
X149029561Y-89238497D01*
X149026439Y-89234351D01*
X149021019Y-89225999D01*
X149016217Y-89217879D01*
X149011996Y-89209106D01*
X149008318Y-89198794D01*
X149005146Y-89186057D01*
X149002442Y-89170009D01*
X149000169Y-89149765D01*
X148998289Y-89124439D01*
X148996764Y-89093145D01*
X148995558Y-89054998D01*
X148994632Y-89009111D01*
X148993948Y-88954599D01*
X148993470Y-88890576D01*
X148993160Y-88816156D01*
X148992980Y-88730454D01*
X148992892Y-88632584D01*
X148992860Y-88521659D01*
X148992850Y-88442302D01*
X148992833Y-88321684D01*
X148992841Y-88214703D01*
X148992922Y-88120480D01*
X148993123Y-88038138D01*
X148993490Y-87966798D01*
X148994071Y-87905584D01*
X148994912Y-87853617D01*
X148996062Y-87810019D01*
X148997567Y-87773913D01*
X148999473Y-87744420D01*
X149001829Y-87720663D01*
X149004681Y-87701764D01*
X149008077Y-87686845D01*
X149012062Y-87675028D01*
X149016686Y-87665436D01*
X149021993Y-87657190D01*
X149028033Y-87649413D01*
X149034851Y-87641227D01*
X149035877Y-87639990D01*
X149051637Y-87624305D01*
X149070748Y-87612812D01*
X149095547Y-87604943D01*
X149128367Y-87600135D01*
X149171546Y-87597821D01*
X149211885Y-87597383D01*
X149268751Y-87598729D01*
X149313405Y-87603278D01*
X149347958Y-87611887D01*
X149374523Y-87625409D01*
X149395210Y-87644701D01*
X149412131Y-87670617D01*
X149417122Y-87680505D01*
X149422255Y-87691675D01*
X149426299Y-87702521D01*
X149429404Y-87714914D01*
X149431726Y-87730723D01*
X149433416Y-87751818D01*
X149434627Y-87780068D01*
X149435512Y-87817343D01*
X149436225Y-87865513D01*
X149436869Y-87922103D01*
X149439086Y-88127120D01*
X149439086Y-88127120D01*
X149439086Y-88127120D01*
G37*
X149439086Y-88127120D02*
X149409330Y-88127117D01*
X149379574Y-88127114D01*
X149374463Y-87932985D01*
X149372757Y-87872815D01*
X149371078Y-87825377D01*
X149369280Y-87788893D01*
X149367220Y-87761583D01*
X149364751Y-87741665D01*
X149361729Y-87727361D01*
X149358010Y-87716890D01*
X149356642Y-87714047D01*
X149344693Y-87696686D01*
X149327947Y-87684260D01*
X149304289Y-87676187D01*
X149271604Y-87671887D01*
X149227776Y-87670779D01*
X149200716Y-87671249D01*
X149164160Y-87672358D01*
X149139200Y-87673783D01*
X149122923Y-87676181D01*
X149112415Y-87680206D01*
X149104763Y-87686514D01*
X149098214Y-87694302D01*
X149084614Y-87716037D01*
X149074011Y-87740694D01*
X149073513Y-87742302D01*
X149071974Y-87752657D01*
X149070611Y-87773159D01*
X149069418Y-87804258D01*
X149068388Y-87846405D01*
X149067518Y-87900050D01*
X149066802Y-87965644D01*
X149066235Y-88043637D01*
X149065811Y-88134479D01*
X149065526Y-88238621D01*
X149065374Y-88356514D01*
X149065343Y-88446793D01*
X149065349Y-88561167D01*
X149065378Y-88661934D01*
X149065450Y-88750001D01*
X149065584Y-88826276D01*
X149065799Y-88891666D01*
X149066114Y-88947079D01*
X149066547Y-88993421D01*
X149067119Y-89031601D01*
X149067847Y-89062526D01*
X149068752Y-89087102D01*
X149069852Y-89106238D01*
X149071165Y-89120840D01*
X149072712Y-89131817D01*
X149074511Y-89140075D01*
X149076581Y-89146521D01*
X149078941Y-89152064D01*
X149080187Y-89154681D01*
X149093793Y-89176129D01*
X149112105Y-89191355D01*
X149137456Y-89201231D01*
X149172178Y-89206627D01*
X149218601Y-89208414D01*
X149224064Y-89208428D01*
X149268160Y-89207480D01*
X149300351Y-89204088D01*
X149323158Y-89197427D01*
X149339100Y-89186674D01*
X149350698Y-89171004D01*
X149353228Y-89166194D01*
X149357297Y-89156599D01*
X149360507Y-89144848D01*
X149362988Y-89129102D01*
X149364869Y-89107520D01*
X149366279Y-89078264D01*
X149367348Y-89039493D01*
X149368205Y-88989368D01*
X149368762Y-88945357D01*
X149371009Y-88751228D01*
X149403233Y-88751228D01*
X149435458Y-88751228D01*
X149435280Y-88945357D01*
X149434995Y-89012700D01*
X149434138Y-89067268D01*
X149432503Y-89110796D01*
X149429883Y-89145019D01*
X149426073Y-89171671D01*
X149420865Y-89192486D01*
X149414053Y-89209201D01*
X149405430Y-89223550D01*
X149401548Y-89228858D01*
X149386855Y-89246852D01*
X149372511Y-89260163D01*
X149356055Y-89269487D01*
X149335028Y-89275519D01*
X149306969Y-89278954D01*
X149269419Y-89280488D01*
X149219917Y-89280815D01*
X149217743Y-89280813D01*
X149170974Y-89280520D01*
X149136113Y-89279604D01*
X149110558Y-89277828D01*
X149091709Y-89274960D01*
X149076965Y-89270763D01*
X149068668Y-89267357D01*
X149047029Y-89254345D01*
X149029561Y-89238497D01*
X149026439Y-89234351D01*
X149021019Y-89225999D01*
X149016217Y-89217879D01*
X149011996Y-89209106D01*
X149008318Y-89198794D01*
X149005146Y-89186057D01*
X149002442Y-89170009D01*
X149000169Y-89149765D01*
X148998289Y-89124439D01*
X148996764Y-89093145D01*
X148995558Y-89054998D01*
X148994632Y-89009111D01*
X148993948Y-88954599D01*
X148993470Y-88890576D01*
X148993160Y-88816156D01*
X148992980Y-88730454D01*
X148992892Y-88632584D01*
X148992860Y-88521659D01*
X148992850Y-88442302D01*
X148992833Y-88321684D01*
X148992841Y-88214703D01*
X148992922Y-88120480D01*
X148993123Y-88038138D01*
X148993490Y-87966798D01*
X148994071Y-87905584D01*
X148994912Y-87853617D01*
X148996062Y-87810019D01*
X148997567Y-87773913D01*
X148999473Y-87744420D01*
X149001829Y-87720663D01*
X149004681Y-87701764D01*
X149008077Y-87686845D01*
X149012062Y-87675028D01*
X149016686Y-87665436D01*
X149021993Y-87657190D01*
X149028033Y-87649413D01*
X149034851Y-87641227D01*
X149035877Y-87639990D01*
X149051637Y-87624305D01*
X149070748Y-87612812D01*
X149095547Y-87604943D01*
X149128367Y-87600135D01*
X149171546Y-87597821D01*
X149211885Y-87597383D01*
X149268751Y-87598729D01*
X149313405Y-87603278D01*
X149347958Y-87611887D01*
X149374523Y-87625409D01*
X149395210Y-87644701D01*
X149412131Y-87670617D01*
X149417122Y-87680505D01*
X149422255Y-87691675D01*
X149426299Y-87702521D01*
X149429404Y-87714914D01*
X149431726Y-87730723D01*
X149433416Y-87751818D01*
X149434627Y-87780068D01*
X149435512Y-87817343D01*
X149436225Y-87865513D01*
X149436869Y-87922103D01*
X149439086Y-88127120D01*
X149439086Y-88127120D01*
G36*
X151032824Y-88127114D02*
X150999769Y-88127114D01*
X150966715Y-88127114D01*
X150966674Y-87943871D01*
X150966382Y-87892242D01*
X150965581Y-87844137D01*
X150964352Y-87801872D01*
X150962775Y-87767763D01*
X150960931Y-87744124D01*
X150959428Y-87734689D01*
X150949070Y-87711593D01*
X150934004Y-87691638D01*
X150933489Y-87691146D01*
X150925304Y-87684119D01*
X150916496Y-87679262D01*
X150904363Y-87676176D01*
X150886205Y-87674461D01*
X150859318Y-87673716D01*
X150821002Y-87673544D01*
X150814507Y-87673542D01*
X150769997Y-87673891D01*
X150737507Y-87675640D01*
X150714544Y-87679847D01*
X150698618Y-87687568D01*
X150687238Y-87699859D01*
X150677912Y-87717778D01*
X150671247Y-87734303D01*
X150667845Y-87744324D01*
X150665089Y-87756004D01*
X150662912Y-87770892D01*
X150661248Y-87790541D01*
X150660030Y-87816499D01*
X150659192Y-87850318D01*
X150658667Y-87893549D01*
X150658388Y-87947742D01*
X150658290Y-88014448D01*
X150658286Y-88036400D01*
X150658371Y-88111184D01*
X150658724Y-88172834D01*
X150659498Y-88222729D01*
X150660841Y-88262249D01*
X150662906Y-88292773D01*
X150665841Y-88315681D01*
X150669799Y-88332352D01*
X150674929Y-88344165D01*
X150681382Y-88352501D01*
X150689308Y-88358739D01*
X150693753Y-88361434D01*
X150707683Y-88365134D01*
X150735323Y-88368380D01*
X150775875Y-88371110D01*
X150828540Y-88373260D01*
X150849431Y-88373857D01*
X150989776Y-88377485D01*
X151006809Y-88397306D01*
X151018973Y-88417650D01*
X151027439Y-88442802D01*
X151028409Y-88448106D01*
X151029285Y-88461547D01*
X151030004Y-88487918D01*
X151030559Y-88525635D01*
X151030938Y-88573115D01*
X151031135Y-88628774D01*
X151031138Y-88691030D01*
X151030940Y-88758298D01*
X151030568Y-88823800D01*
X151029959Y-88904594D01*
X151029324Y-88972167D01*
X151028613Y-89027809D01*
X151027774Y-89072813D01*
X151026756Y-89108469D01*
X151025507Y-89136072D01*
X151023977Y-89156911D01*
X151022114Y-89172279D01*
X151019867Y-89183469D01*
X151017184Y-89191771D01*
X151015849Y-89194852D01*
X150993309Y-89232493D01*
X150966523Y-89259511D01*
X150939034Y-89273490D01*
X150917976Y-89277100D01*
X150887038Y-89279586D01*
X150849358Y-89280987D01*
X150808073Y-89281343D01*
X150766320Y-89280694D01*
X150727237Y-89279081D01*
X150693960Y-89276543D01*
X150669627Y-89273120D01*
X150658973Y-89269915D01*
X150641630Y-89259075D01*
X150627288Y-89244836D01*
X150612620Y-89223407D01*
X150601880Y-89204800D01*
X150597213Y-89195851D01*
X150593515Y-89186488D01*
X150590651Y-89174939D01*
X150588485Y-89159431D01*
X150586881Y-89138193D01*
X150585704Y-89109451D01*
X150584818Y-89071435D01*
X150584087Y-89022372D01*
X150583409Y-88963500D01*
X150581103Y-88751228D01*
X150613637Y-88751228D01*
X150646172Y-88751228D01*
X150648600Y-88945357D01*
X150649400Y-89003966D01*
X150650255Y-89049904D01*
X150651311Y-89085017D01*
X150652714Y-89111148D01*
X150654610Y-89130141D01*
X150657144Y-89143839D01*
X150660461Y-89154088D01*
X150664709Y-89162730D01*
X150665940Y-89164869D01*
X150678330Y-89182664D01*
X150692853Y-89194917D01*
X150712365Y-89202608D01*
X150739719Y-89206715D01*
X150777768Y-89208219D01*
X150792543Y-89208310D01*
X150838324Y-89207100D01*
X150872505Y-89202607D01*
X150897833Y-89193734D01*
X150917058Y-89179382D01*
X150932928Y-89158456D01*
X150937647Y-89150371D01*
X150955829Y-89117714D01*
X150955829Y-88819636D01*
X150955829Y-88521559D01*
X150937686Y-88494993D01*
X150924713Y-88477971D01*
X150913707Y-88466814D01*
X150910897Y-88465075D01*
X150901122Y-88463709D01*
X150879363Y-88461993D01*
X150848142Y-88460087D01*
X150809981Y-88458144D01*
X150774052Y-88456586D01*
X150733818Y-88455150D01*
X150699749Y-88453573D01*
X150671332Y-88450726D01*
X150648058Y-88445477D01*
X150629415Y-88436697D01*
X150614893Y-88423255D01*
X150603979Y-88404021D01*
X150596163Y-88377864D01*
X150590933Y-88343653D01*
X150587779Y-88300259D01*
X150586190Y-88246550D01*
X150585654Y-88181397D01*
X150585661Y-88103669D01*
X150585715Y-88040028D01*
X150585763Y-87963915D01*
X150585945Y-87900878D01*
X150586314Y-87849476D01*
X150586924Y-87808270D01*
X150587828Y-87775822D01*
X150589080Y-87750692D01*
X150590734Y-87731441D01*
X150592844Y-87716629D01*
X150595463Y-87704818D01*
X150598605Y-87694683D01*
X150614625Y-87661363D01*
X150636469Y-87632840D01*
X150660952Y-87612771D01*
X150675577Y-87606311D01*
X150688837Y-87604578D01*
X150713856Y-87603080D01*
X150747878Y-87601916D01*
X150788148Y-87601182D01*
X150825200Y-87600971D01*
X150877030Y-87601219D01*
X150916515Y-87602430D01*
X150945822Y-87605307D01*
X150967119Y-87610554D01*
X150982573Y-87618872D01*
X150994352Y-87630965D01*
X151004622Y-87647534D01*
X151011715Y-87661443D01*
X151016494Y-87671667D01*
X151020286Y-87681943D01*
X151023225Y-87694058D01*
X151025449Y-87709805D01*
X151027091Y-87730971D01*
X151028287Y-87759346D01*
X151029173Y-87796720D01*
X151029884Y-87844882D01*
X151030555Y-87905621D01*
X151030612Y-87911214D01*
X151032824Y-88127114D01*
X151032824Y-88127114D01*
X151032824Y-88127114D01*
G37*
X151032824Y-88127114D02*
X150999769Y-88127114D01*
X150966715Y-88127114D01*
X150966674Y-87943871D01*
X150966382Y-87892242D01*
X150965581Y-87844137D01*
X150964352Y-87801872D01*
X150962775Y-87767763D01*
X150960931Y-87744124D01*
X150959428Y-87734689D01*
X150949070Y-87711593D01*
X150934004Y-87691638D01*
X150933489Y-87691146D01*
X150925304Y-87684119D01*
X150916496Y-87679262D01*
X150904363Y-87676176D01*
X150886205Y-87674461D01*
X150859318Y-87673716D01*
X150821002Y-87673544D01*
X150814507Y-87673542D01*
X150769997Y-87673891D01*
X150737507Y-87675640D01*
X150714544Y-87679847D01*
X150698618Y-87687568D01*
X150687238Y-87699859D01*
X150677912Y-87717778D01*
X150671247Y-87734303D01*
X150667845Y-87744324D01*
X150665089Y-87756004D01*
X150662912Y-87770892D01*
X150661248Y-87790541D01*
X150660030Y-87816499D01*
X150659192Y-87850318D01*
X150658667Y-87893549D01*
X150658388Y-87947742D01*
X150658290Y-88014448D01*
X150658286Y-88036400D01*
X150658371Y-88111184D01*
X150658724Y-88172834D01*
X150659498Y-88222729D01*
X150660841Y-88262249D01*
X150662906Y-88292773D01*
X150665841Y-88315681D01*
X150669799Y-88332352D01*
X150674929Y-88344165D01*
X150681382Y-88352501D01*
X150689308Y-88358739D01*
X150693753Y-88361434D01*
X150707683Y-88365134D01*
X150735323Y-88368380D01*
X150775875Y-88371110D01*
X150828540Y-88373260D01*
X150849431Y-88373857D01*
X150989776Y-88377485D01*
X151006809Y-88397306D01*
X151018973Y-88417650D01*
X151027439Y-88442802D01*
X151028409Y-88448106D01*
X151029285Y-88461547D01*
X151030004Y-88487918D01*
X151030559Y-88525635D01*
X151030938Y-88573115D01*
X151031135Y-88628774D01*
X151031138Y-88691030D01*
X151030940Y-88758298D01*
X151030568Y-88823800D01*
X151029959Y-88904594D01*
X151029324Y-88972167D01*
X151028613Y-89027809D01*
X151027774Y-89072813D01*
X151026756Y-89108469D01*
X151025507Y-89136072D01*
X151023977Y-89156911D01*
X151022114Y-89172279D01*
X151019867Y-89183469D01*
X151017184Y-89191771D01*
X151015849Y-89194852D01*
X150993309Y-89232493D01*
X150966523Y-89259511D01*
X150939034Y-89273490D01*
X150917976Y-89277100D01*
X150887038Y-89279586D01*
X150849358Y-89280987D01*
X150808073Y-89281343D01*
X150766320Y-89280694D01*
X150727237Y-89279081D01*
X150693960Y-89276543D01*
X150669627Y-89273120D01*
X150658973Y-89269915D01*
X150641630Y-89259075D01*
X150627288Y-89244836D01*
X150612620Y-89223407D01*
X150601880Y-89204800D01*
X150597213Y-89195851D01*
X150593515Y-89186488D01*
X150590651Y-89174939D01*
X150588485Y-89159431D01*
X150586881Y-89138193D01*
X150585704Y-89109451D01*
X150584818Y-89071435D01*
X150584087Y-89022372D01*
X150583409Y-88963500D01*
X150581103Y-88751228D01*
X150613637Y-88751228D01*
X150646172Y-88751228D01*
X150648600Y-88945357D01*
X150649400Y-89003966D01*
X150650255Y-89049904D01*
X150651311Y-89085017D01*
X150652714Y-89111148D01*
X150654610Y-89130141D01*
X150657144Y-89143839D01*
X150660461Y-89154088D01*
X150664709Y-89162730D01*
X150665940Y-89164869D01*
X150678330Y-89182664D01*
X150692853Y-89194917D01*
X150712365Y-89202608D01*
X150739719Y-89206715D01*
X150777768Y-89208219D01*
X150792543Y-89208310D01*
X150838324Y-89207100D01*
X150872505Y-89202607D01*
X150897833Y-89193734D01*
X150917058Y-89179382D01*
X150932928Y-89158456D01*
X150937647Y-89150371D01*
X150955829Y-89117714D01*
X150955829Y-88819636D01*
X150955829Y-88521559D01*
X150937686Y-88494993D01*
X150924713Y-88477971D01*
X150913707Y-88466814D01*
X150910897Y-88465075D01*
X150901122Y-88463709D01*
X150879363Y-88461993D01*
X150848142Y-88460087D01*
X150809981Y-88458144D01*
X150774052Y-88456586D01*
X150733818Y-88455150D01*
X150699749Y-88453573D01*
X150671332Y-88450726D01*
X150648058Y-88445477D01*
X150629415Y-88436697D01*
X150614893Y-88423255D01*
X150603979Y-88404021D01*
X150596163Y-88377864D01*
X150590933Y-88343653D01*
X150587779Y-88300259D01*
X150586190Y-88246550D01*
X150585654Y-88181397D01*
X150585661Y-88103669D01*
X150585715Y-88040028D01*
X150585763Y-87963915D01*
X150585945Y-87900878D01*
X150586314Y-87849476D01*
X150586924Y-87808270D01*
X150587828Y-87775822D01*
X150589080Y-87750692D01*
X150590734Y-87731441D01*
X150592844Y-87716629D01*
X150595463Y-87704818D01*
X150598605Y-87694683D01*
X150614625Y-87661363D01*
X150636469Y-87632840D01*
X150660952Y-87612771D01*
X150675577Y-87606311D01*
X150688837Y-87604578D01*
X150713856Y-87603080D01*
X150747878Y-87601916D01*
X150788148Y-87601182D01*
X150825200Y-87600971D01*
X150877030Y-87601219D01*
X150916515Y-87602430D01*
X150945822Y-87605307D01*
X150967119Y-87610554D01*
X150982573Y-87618872D01*
X150994352Y-87630965D01*
X151004622Y-87647534D01*
X151011715Y-87661443D01*
X151016494Y-87671667D01*
X151020286Y-87681943D01*
X151023225Y-87694058D01*
X151025449Y-87709805D01*
X151027091Y-87730971D01*
X151028287Y-87759346D01*
X151029173Y-87796720D01*
X151029884Y-87844882D01*
X151030555Y-87905621D01*
X151030612Y-87911214D01*
X151032824Y-88127114D01*
X151032824Y-88127114D01*
G36*
X133444312Y-89266485D02*
X133186683Y-89266485D01*
X132929055Y-89266485D01*
X132301343Y-88638742D01*
X131673632Y-88011000D01*
X131535746Y-88011000D01*
X131397860Y-88011000D01*
X132025572Y-88638742D01*
X132653283Y-89266485D01*
X132399299Y-89266380D01*
X132145315Y-89266275D01*
X131512763Y-88638637D01*
X130880211Y-88011000D01*
X130747520Y-88011000D01*
X130614830Y-88011000D01*
X130701216Y-88099900D01*
X130718409Y-88117457D01*
X130745032Y-88144461D01*
X130780265Y-88180084D01*
X130823285Y-88223498D01*
X130873270Y-88273877D01*
X130929398Y-88330393D01*
X130990847Y-88392218D01*
X131056796Y-88458525D01*
X131126423Y-88528488D01*
X131198905Y-88601278D01*
X131273421Y-88676068D01*
X131324830Y-88727642D01*
X131862058Y-89266485D01*
X131604528Y-89266485D01*
X131346998Y-89266485D01*
X130716648Y-88636104D01*
X130086298Y-88005723D01*
X130284700Y-87801533D01*
X130483102Y-87597342D01*
X131495637Y-87597279D01*
X131616423Y-87597241D01*
X131733666Y-87597144D01*
X131846499Y-87596992D01*
X131954057Y-87596788D01*
X132055473Y-87596536D01*
X132149881Y-87596241D01*
X132236414Y-87595904D01*
X132314206Y-87595530D01*
X132382390Y-87595123D01*
X132440101Y-87594686D01*
X132486472Y-87594222D01*
X132520636Y-87593736D01*
X132541728Y-87593231D01*
X132548086Y-87592887D01*
X132588000Y-87588558D01*
X132381172Y-87791936D01*
X132174343Y-87995314D01*
X132809328Y-88630900D01*
X133444312Y-89266485D01*
X133444312Y-89266485D01*
X133444312Y-89266485D01*
G37*
X133444312Y-89266485D02*
X133186683Y-89266485D01*
X132929055Y-89266485D01*
X132301343Y-88638742D01*
X131673632Y-88011000D01*
X131535746Y-88011000D01*
X131397860Y-88011000D01*
X132025572Y-88638742D01*
X132653283Y-89266485D01*
X132399299Y-89266380D01*
X132145315Y-89266275D01*
X131512763Y-88638637D01*
X130880211Y-88011000D01*
X130747520Y-88011000D01*
X130614830Y-88011000D01*
X130701216Y-88099900D01*
X130718409Y-88117457D01*
X130745032Y-88144461D01*
X130780265Y-88180084D01*
X130823285Y-88223498D01*
X130873270Y-88273877D01*
X130929398Y-88330393D01*
X130990847Y-88392218D01*
X131056796Y-88458525D01*
X131126423Y-88528488D01*
X131198905Y-88601278D01*
X131273421Y-88676068D01*
X131324830Y-88727642D01*
X131862058Y-89266485D01*
X131604528Y-89266485D01*
X131346998Y-89266485D01*
X130716648Y-88636104D01*
X130086298Y-88005723D01*
X130284700Y-87801533D01*
X130483102Y-87597342D01*
X131495637Y-87597279D01*
X131616423Y-87597241D01*
X131733666Y-87597144D01*
X131846499Y-87596992D01*
X131954057Y-87596788D01*
X132055473Y-87596536D01*
X132149881Y-87596241D01*
X132236414Y-87595904D01*
X132314206Y-87595530D01*
X132382390Y-87595123D01*
X132440101Y-87594686D01*
X132486472Y-87594222D01*
X132520636Y-87593736D01*
X132541728Y-87593231D01*
X132548086Y-87592887D01*
X132588000Y-87588558D01*
X132381172Y-87791936D01*
X132174343Y-87995314D01*
X132809328Y-88630900D01*
X133444312Y-89266485D01*
X133444312Y-89266485D01*
G36*
X151079200Y-87220816D02*
X151074364Y-87221785D01*
X151055675Y-87222607D01*
X151023795Y-87223282D01*
X150979383Y-87223808D01*
X150923101Y-87224182D01*
X150855610Y-87224402D01*
X150777570Y-87224468D01*
X150689643Y-87224375D01*
X150592489Y-87224124D01*
X150486770Y-87223711D01*
X150373145Y-87223135D01*
X150346229Y-87222981D01*
X149598743Y-87218610D01*
X149101629Y-86991168D01*
X148604515Y-86763725D01*
X148599929Y-86859405D01*
X148598296Y-86900528D01*
X148596806Y-86951071D01*
X148595580Y-87005942D01*
X148594739Y-87060048D01*
X148594486Y-87087528D01*
X148593629Y-87219971D01*
X148329924Y-87219971D01*
X148257172Y-87220124D01*
X148178299Y-87220559D01*
X148097153Y-87221235D01*
X148017586Y-87222114D01*
X147943445Y-87223157D01*
X147878580Y-87224324D01*
X147858210Y-87224768D01*
X147650200Y-87229565D01*
X147650200Y-86480911D01*
X147650200Y-85732257D01*
X148125543Y-85732257D01*
X148600886Y-85732257D01*
X148600886Y-85943203D01*
X148600909Y-86003963D01*
X148601051Y-86051729D01*
X148601420Y-86088018D01*
X148602126Y-86114349D01*
X148603278Y-86132243D01*
X148604984Y-86143217D01*
X148607353Y-86148791D01*
X148610494Y-86150484D01*
X148614517Y-86149814D01*
X148615675Y-86149455D01*
X148624642Y-86146013D01*
X148645969Y-86137519D01*
X148678577Y-86124410D01*
X148721389Y-86107123D01*
X148773328Y-86086095D01*
X148833317Y-86061761D01*
X148900277Y-86034559D01*
X148973132Y-86004926D01*
X149050804Y-85973298D01*
X149132215Y-85940111D01*
X149136230Y-85938474D01*
X149641995Y-85732187D01*
X150359015Y-85734036D01*
X151076035Y-85735885D01*
X150190626Y-86087688D01*
X150082595Y-86130667D01*
X149978421Y-86172217D01*
X149878887Y-86212020D01*
X149784777Y-86249760D01*
X149696872Y-86285118D01*
X149615955Y-86317778D01*
X149542808Y-86347422D01*
X149478215Y-86373733D01*
X149422958Y-86396393D01*
X149377818Y-86415086D01*
X149343580Y-86429492D01*
X149321025Y-86439296D01*
X149310936Y-86444180D01*
X149310466Y-86444651D01*
X149317638Y-86448135D01*
X149337329Y-86457080D01*
X149368758Y-86471140D01*
X149411141Y-86489971D01*
X149463695Y-86513228D01*
X149525638Y-86540566D01*
X149596187Y-86571641D01*
X149674558Y-86606107D01*
X149759970Y-86643621D01*
X149851639Y-86683837D01*
X149948782Y-86726410D01*
X150050616Y-86770997D01*
X150156359Y-86817251D01*
X150190200Y-86832045D01*
X150297188Y-86878811D01*
X150400638Y-86924032D01*
X150499755Y-86967363D01*
X150593746Y-87008455D01*
X150681819Y-87046963D01*
X150763178Y-87082538D01*
X150837031Y-87114835D01*
X150902583Y-87143505D01*
X150959042Y-87168201D01*
X151005614Y-87188578D01*
X151041504Y-87204287D01*
X151065920Y-87214981D01*
X151078068Y-87220314D01*
X151079200Y-87220816D01*
X151079200Y-87220816D01*
X151079200Y-87220816D01*
G37*
X151079200Y-87220816D02*
X151074364Y-87221785D01*
X151055675Y-87222607D01*
X151023795Y-87223282D01*
X150979383Y-87223808D01*
X150923101Y-87224182D01*
X150855610Y-87224402D01*
X150777570Y-87224468D01*
X150689643Y-87224375D01*
X150592489Y-87224124D01*
X150486770Y-87223711D01*
X150373145Y-87223135D01*
X150346229Y-87222981D01*
X149598743Y-87218610D01*
X149101629Y-86991168D01*
X148604515Y-86763725D01*
X148599929Y-86859405D01*
X148598296Y-86900528D01*
X148596806Y-86951071D01*
X148595580Y-87005942D01*
X148594739Y-87060048D01*
X148594486Y-87087528D01*
X148593629Y-87219971D01*
X148329924Y-87219971D01*
X148257172Y-87220124D01*
X148178299Y-87220559D01*
X148097153Y-87221235D01*
X148017586Y-87222114D01*
X147943445Y-87223157D01*
X147878580Y-87224324D01*
X147858210Y-87224768D01*
X147650200Y-87229565D01*
X147650200Y-86480911D01*
X147650200Y-85732257D01*
X148125543Y-85732257D01*
X148600886Y-85732257D01*
X148600886Y-85943203D01*
X148600909Y-86003963D01*
X148601051Y-86051729D01*
X148601420Y-86088018D01*
X148602126Y-86114349D01*
X148603278Y-86132243D01*
X148604984Y-86143217D01*
X148607353Y-86148791D01*
X148610494Y-86150484D01*
X148614517Y-86149814D01*
X148615675Y-86149455D01*
X148624642Y-86146013D01*
X148645969Y-86137519D01*
X148678577Y-86124410D01*
X148721389Y-86107123D01*
X148773328Y-86086095D01*
X148833317Y-86061761D01*
X148900277Y-86034559D01*
X148973132Y-86004926D01*
X149050804Y-85973298D01*
X149132215Y-85940111D01*
X149136230Y-85938474D01*
X149641995Y-85732187D01*
X150359015Y-85734036D01*
X151076035Y-85735885D01*
X150190626Y-86087688D01*
X150082595Y-86130667D01*
X149978421Y-86172217D01*
X149878887Y-86212020D01*
X149784777Y-86249760D01*
X149696872Y-86285118D01*
X149615955Y-86317778D01*
X149542808Y-86347422D01*
X149478215Y-86373733D01*
X149422958Y-86396393D01*
X149377818Y-86415086D01*
X149343580Y-86429492D01*
X149321025Y-86439296D01*
X149310936Y-86444180D01*
X149310466Y-86444651D01*
X149317638Y-86448135D01*
X149337329Y-86457080D01*
X149368758Y-86471140D01*
X149411141Y-86489971D01*
X149463695Y-86513228D01*
X149525638Y-86540566D01*
X149596187Y-86571641D01*
X149674558Y-86606107D01*
X149759970Y-86643621D01*
X149851639Y-86683837D01*
X149948782Y-86726410D01*
X150050616Y-86770997D01*
X150156359Y-86817251D01*
X150190200Y-86832045D01*
X150297188Y-86878811D01*
X150400638Y-86924032D01*
X150499755Y-86967363D01*
X150593746Y-87008455D01*
X150681819Y-87046963D01*
X150763178Y-87082538D01*
X150837031Y-87114835D01*
X150902583Y-87143505D01*
X150959042Y-87168201D01*
X151005614Y-87188578D01*
X151041504Y-87204287D01*
X151065920Y-87214981D01*
X151078068Y-87220314D01*
X151079200Y-87220816D01*
X151079200Y-87220816D01*
G36*
X138023534Y-86784542D02*
X138023498Y-86833316D01*
X138023160Y-86870029D01*
X138022252Y-86897136D01*
X138020508Y-86917092D01*
X138017660Y-86932350D01*
X138013442Y-86945365D01*
X138007585Y-86958591D01*
X138003724Y-86966529D01*
X137970083Y-87018606D01*
X137923335Y-87064647D01*
X137863602Y-87104589D01*
X137791005Y-87138370D01*
X137705666Y-87165928D01*
X137607706Y-87187199D01*
X137560571Y-87194560D01*
X137535861Y-87197825D01*
X137510193Y-87200801D01*
X137482835Y-87203501D01*
X137453050Y-87205938D01*
X137420104Y-87208125D01*
X137383261Y-87210075D01*
X137341787Y-87211802D01*
X137294945Y-87213318D01*
X137242002Y-87214637D01*
X137182222Y-87215772D01*
X137114870Y-87216735D01*
X137112829Y-87216756D01*
X137112829Y-86777285D01*
X137112829Y-86722857D01*
X137112829Y-86668428D01*
X137109200Y-86668428D01*
X137109200Y-86251142D01*
X137109200Y-86203971D01*
X137109200Y-86156800D01*
X136548586Y-86154940D01*
X135987972Y-86153081D01*
X135987972Y-86203971D01*
X135987972Y-86254860D01*
X136548586Y-86253001D01*
X137109200Y-86251142D01*
X137109200Y-86668428D01*
X136554029Y-86668428D01*
X135995229Y-86668428D01*
X135995229Y-86722857D01*
X135995229Y-86777285D01*
X136554029Y-86777285D01*
X137112829Y-86777285D01*
X137112829Y-87216756D01*
X137039211Y-87217541D01*
X136954510Y-87218201D01*
X136860031Y-87218730D01*
X136755040Y-87219140D01*
X136638802Y-87219445D01*
X136510581Y-87219657D01*
X136369643Y-87219790D01*
X136215252Y-87219857D01*
X136142186Y-87219868D01*
X135044543Y-87219971D01*
X135044543Y-86476114D01*
X135044543Y-85732257D01*
X135340272Y-85732730D01*
X135385508Y-85732840D01*
X135444010Y-85733042D01*
X135514532Y-85733330D01*
X135595826Y-85733698D01*
X135686645Y-85734138D01*
X135785742Y-85734644D01*
X135891870Y-85735210D01*
X136003780Y-85735828D01*
X136120227Y-85736493D01*
X136239963Y-85737197D01*
X136361739Y-85737935D01*
X136484311Y-85738698D01*
X136579429Y-85739306D01*
X136715945Y-85740195D01*
X136838753Y-85741015D01*
X136948657Y-85741783D01*
X137046463Y-85742515D01*
X137132976Y-85743228D01*
X137209001Y-85743939D01*
X137275344Y-85744664D01*
X137332809Y-85745420D01*
X137382203Y-85746224D01*
X137424330Y-85747093D01*
X137459995Y-85748043D01*
X137490005Y-85749091D01*
X137515163Y-85750254D01*
X137536276Y-85751548D01*
X137554149Y-85752991D01*
X137569586Y-85754598D01*
X137583393Y-85756386D01*
X137596376Y-85758373D01*
X137609340Y-85760574D01*
X137609943Y-85760680D01*
X137701776Y-85780286D01*
X137780387Y-85804758D01*
X137846356Y-85834471D01*
X137900262Y-85869799D01*
X137942684Y-85911116D01*
X137974204Y-85958794D01*
X137994040Y-86008500D01*
X138004520Y-86057031D01*
X138010042Y-86112401D01*
X138010771Y-86170761D01*
X138006874Y-86228260D01*
X137998518Y-86281051D01*
X137985870Y-86325284D01*
X137979699Y-86339611D01*
X137965531Y-86363751D01*
X137946036Y-86387623D01*
X137918922Y-86413643D01*
X137881893Y-86444224D01*
X137875711Y-86449067D01*
X137858449Y-86462518D01*
X137895112Y-86486045D01*
X137937411Y-86518620D01*
X137974466Y-86557516D01*
X138002347Y-86598442D01*
X138007557Y-86608777D01*
X138013095Y-86621719D01*
X138017183Y-86634871D01*
X138020039Y-86650643D01*
X138021884Y-86671444D01*
X138022935Y-86699682D01*
X138023413Y-86737766D01*
X138023534Y-86784542D01*
X138023534Y-86784542D01*
X138023534Y-86784542D01*
G37*
X138023534Y-86784542D02*
X138023498Y-86833316D01*
X138023160Y-86870029D01*
X138022252Y-86897136D01*
X138020508Y-86917092D01*
X138017660Y-86932350D01*
X138013442Y-86945365D01*
X138007585Y-86958591D01*
X138003724Y-86966529D01*
X137970083Y-87018606D01*
X137923335Y-87064647D01*
X137863602Y-87104589D01*
X137791005Y-87138370D01*
X137705666Y-87165928D01*
X137607706Y-87187199D01*
X137560571Y-87194560D01*
X137535861Y-87197825D01*
X137510193Y-87200801D01*
X137482835Y-87203501D01*
X137453050Y-87205938D01*
X137420104Y-87208125D01*
X137383261Y-87210075D01*
X137341787Y-87211802D01*
X137294945Y-87213318D01*
X137242002Y-87214637D01*
X137182222Y-87215772D01*
X137114870Y-87216735D01*
X137112829Y-87216756D01*
X137112829Y-86777285D01*
X137112829Y-86722857D01*
X137112829Y-86668428D01*
X137109200Y-86668428D01*
X137109200Y-86251142D01*
X137109200Y-86203971D01*
X137109200Y-86156800D01*
X136548586Y-86154940D01*
X135987972Y-86153081D01*
X135987972Y-86203971D01*
X135987972Y-86254860D01*
X136548586Y-86253001D01*
X137109200Y-86251142D01*
X137109200Y-86668428D01*
X136554029Y-86668428D01*
X135995229Y-86668428D01*
X135995229Y-86722857D01*
X135995229Y-86777285D01*
X136554029Y-86777285D01*
X137112829Y-86777285D01*
X137112829Y-87216756D01*
X137039211Y-87217541D01*
X136954510Y-87218201D01*
X136860031Y-87218730D01*
X136755040Y-87219140D01*
X136638802Y-87219445D01*
X136510581Y-87219657D01*
X136369643Y-87219790D01*
X136215252Y-87219857D01*
X136142186Y-87219868D01*
X135044543Y-87219971D01*
X135044543Y-86476114D01*
X135044543Y-85732257D01*
X135340272Y-85732730D01*
X135385508Y-85732840D01*
X135444010Y-85733042D01*
X135514532Y-85733330D01*
X135595826Y-85733698D01*
X135686645Y-85734138D01*
X135785742Y-85734644D01*
X135891870Y-85735210D01*
X136003780Y-85735828D01*
X136120227Y-85736493D01*
X136239963Y-85737197D01*
X136361739Y-85737935D01*
X136484311Y-85738698D01*
X136579429Y-85739306D01*
X136715945Y-85740195D01*
X136838753Y-85741015D01*
X136948657Y-85741783D01*
X137046463Y-85742515D01*
X137132976Y-85743228D01*
X137209001Y-85743939D01*
X137275344Y-85744664D01*
X137332809Y-85745420D01*
X137382203Y-85746224D01*
X137424330Y-85747093D01*
X137459995Y-85748043D01*
X137490005Y-85749091D01*
X137515163Y-85750254D01*
X137536276Y-85751548D01*
X137554149Y-85752991D01*
X137569586Y-85754598D01*
X137583393Y-85756386D01*
X137596376Y-85758373D01*
X137609340Y-85760574D01*
X137609943Y-85760680D01*
X137701776Y-85780286D01*
X137780387Y-85804758D01*
X137846356Y-85834471D01*
X137900262Y-85869799D01*
X137942684Y-85911116D01*
X137974204Y-85958794D01*
X137994040Y-86008500D01*
X138004520Y-86057031D01*
X138010042Y-86112401D01*
X138010771Y-86170761D01*
X138006874Y-86228260D01*
X137998518Y-86281051D01*
X137985870Y-86325284D01*
X137979699Y-86339611D01*
X137965531Y-86363751D01*
X137946036Y-86387623D01*
X137918922Y-86413643D01*
X137881893Y-86444224D01*
X137875711Y-86449067D01*
X137858449Y-86462518D01*
X137895112Y-86486045D01*
X137937411Y-86518620D01*
X137974466Y-86557516D01*
X138002347Y-86598442D01*
X138007557Y-86608777D01*
X138013095Y-86621719D01*
X138017183Y-86634871D01*
X138020039Y-86650643D01*
X138021884Y-86671444D01*
X138022935Y-86699682D01*
X138023413Y-86737766D01*
X138023534Y-86784542D01*
X138023534Y-86784542D01*
G36*
X144636059Y-87216342D02*
X144098430Y-87218475D01*
X143560800Y-87220609D01*
X143421864Y-87078775D01*
X143282927Y-86936942D01*
X142833306Y-86936942D01*
X142833306Y-86501514D01*
X142801973Y-86467042D01*
X142783609Y-86447025D01*
X142758979Y-86420431D01*
X142731778Y-86391241D01*
X142713368Y-86371588D01*
X142656095Y-86310605D01*
X142565976Y-86400508D01*
X142536741Y-86429975D01*
X142511463Y-86456028D01*
X142491804Y-86476910D01*
X142479422Y-86490863D01*
X142475858Y-86495962D01*
X142482788Y-86497490D01*
X142502275Y-86498858D01*
X142532360Y-86500004D01*
X142571086Y-86500867D01*
X142616495Y-86501386D01*
X142654582Y-86501514D01*
X142833306Y-86501514D01*
X142833306Y-86936942D01*
X142648908Y-86936942D01*
X142014889Y-86936942D01*
X141873515Y-87078457D01*
X141732140Y-87219971D01*
X139959513Y-87219971D01*
X138186886Y-87219971D01*
X138186886Y-86476114D01*
X138186886Y-85732257D01*
X138666333Y-85732257D01*
X139145780Y-85732257D01*
X139143490Y-86251145D01*
X139141200Y-86770033D01*
X140032015Y-86770030D01*
X140922829Y-86770028D01*
X140922829Y-86897028D01*
X140923123Y-86938137D01*
X140923940Y-86973694D01*
X140925180Y-87001380D01*
X140926743Y-87018872D01*
X140928272Y-87023992D01*
X140934103Y-87019080D01*
X140949816Y-87004746D01*
X140974787Y-86981581D01*
X141008389Y-86950176D01*
X141049997Y-86911119D01*
X141098985Y-86865003D01*
X141154728Y-86812416D01*
X141216600Y-86753950D01*
X141283975Y-86690195D01*
X141356228Y-86621741D01*
X141432733Y-86549178D01*
X141512865Y-86473096D01*
X141595997Y-86394087D01*
X141612258Y-86378623D01*
X142290800Y-85733291D01*
X142672935Y-85732774D01*
X143055070Y-85732257D01*
X143845564Y-86474299D01*
X144636059Y-87216342D01*
X144636059Y-87216342D01*
X144636059Y-87216342D01*
G37*
X144636059Y-87216342D02*
X144098430Y-87218475D01*
X143560800Y-87220609D01*
X143421864Y-87078775D01*
X143282927Y-86936942D01*
X142833306Y-86936942D01*
X142833306Y-86501514D01*
X142801973Y-86467042D01*
X142783609Y-86447025D01*
X142758979Y-86420431D01*
X142731778Y-86391241D01*
X142713368Y-86371588D01*
X142656095Y-86310605D01*
X142565976Y-86400508D01*
X142536741Y-86429975D01*
X142511463Y-86456028D01*
X142491804Y-86476910D01*
X142479422Y-86490863D01*
X142475858Y-86495962D01*
X142482788Y-86497490D01*
X142502275Y-86498858D01*
X142532360Y-86500004D01*
X142571086Y-86500867D01*
X142616495Y-86501386D01*
X142654582Y-86501514D01*
X142833306Y-86501514D01*
X142833306Y-86936942D01*
X142648908Y-86936942D01*
X142014889Y-86936942D01*
X141873515Y-87078457D01*
X141732140Y-87219971D01*
X139959513Y-87219971D01*
X138186886Y-87219971D01*
X138186886Y-86476114D01*
X138186886Y-85732257D01*
X138666333Y-85732257D01*
X139145780Y-85732257D01*
X139143490Y-86251145D01*
X139141200Y-86770033D01*
X140032015Y-86770030D01*
X140922829Y-86770028D01*
X140922829Y-86897028D01*
X140923123Y-86938137D01*
X140923940Y-86973694D01*
X140925180Y-87001380D01*
X140926743Y-87018872D01*
X140928272Y-87023992D01*
X140934103Y-87019080D01*
X140949816Y-87004746D01*
X140974787Y-86981581D01*
X141008389Y-86950176D01*
X141049997Y-86911119D01*
X141098985Y-86865003D01*
X141154728Y-86812416D01*
X141216600Y-86753950D01*
X141283975Y-86690195D01*
X141356228Y-86621741D01*
X141432733Y-86549178D01*
X141512865Y-86473096D01*
X141595997Y-86394087D01*
X141612258Y-86378623D01*
X142290800Y-85733291D01*
X142672935Y-85732774D01*
X143055070Y-85732257D01*
X143845564Y-86474299D01*
X144636059Y-87216342D01*
X144636059Y-87216342D01*
G36*
X147488177Y-86242339D02*
X147487808Y-86280403D01*
X147486983Y-86294691D01*
X147482284Y-86352753D01*
X147017406Y-86391135D01*
X146936777Y-86397744D01*
X146860494Y-86403905D01*
X146789774Y-86409526D01*
X146725835Y-86414513D01*
X146669894Y-86418774D01*
X146623170Y-86422218D01*
X146586880Y-86424751D01*
X146562241Y-86426282D01*
X146550472Y-86426718D01*
X146549627Y-86426616D01*
X146548423Y-86419046D01*
X146546572Y-86399904D01*
X146544280Y-86372108D01*
X146541753Y-86338577D01*
X146539196Y-86302228D01*
X146536815Y-86265979D01*
X146534815Y-86232749D01*
X146533402Y-86205454D01*
X146532790Y-86187642D01*
X146532129Y-86185256D01*
X146529580Y-86183188D01*
X146524176Y-86181415D01*
X146514953Y-86179915D01*
X146500945Y-86178666D01*
X146481186Y-86177644D01*
X146454710Y-86176827D01*
X146420553Y-86176193D01*
X146377749Y-86175718D01*
X146325332Y-86175380D01*
X146262336Y-86175156D01*
X146187797Y-86175023D01*
X146100749Y-86174960D01*
X146000226Y-86174942D01*
X145991943Y-86174942D01*
X145451286Y-86174942D01*
X145451286Y-86472485D01*
X145451286Y-86770028D01*
X145990868Y-86770028D01*
X146530449Y-86770028D01*
X146535110Y-86710157D01*
X146537078Y-86676939D01*
X146538644Y-86635430D01*
X146539607Y-86591852D01*
X146539814Y-86565014D01*
X146539938Y-86528771D01*
X146540579Y-86504606D01*
X146542205Y-86490083D01*
X146545286Y-86482765D01*
X146550291Y-86480215D01*
X146556186Y-86479975D01*
X146569902Y-86480865D01*
X146595896Y-86483220D01*
X146632680Y-86486873D01*
X146678763Y-86491653D01*
X146732659Y-86497393D01*
X146792878Y-86503924D01*
X146857932Y-86511077D01*
X146926332Y-86518684D01*
X146996590Y-86526575D01*
X147067217Y-86534582D01*
X147136725Y-86542536D01*
X147203625Y-86550269D01*
X147266428Y-86557611D01*
X147323647Y-86564395D01*
X147373792Y-86570451D01*
X147415375Y-86575611D01*
X147446907Y-86579706D01*
X147466900Y-86582567D01*
X147473844Y-86583982D01*
X147476592Y-86593767D01*
X147478816Y-86615291D01*
X147480492Y-86645788D01*
X147481594Y-86682490D01*
X147482096Y-86722630D01*
X147481974Y-86763442D01*
X147481201Y-86802158D01*
X147479753Y-86836013D01*
X147477603Y-86862239D01*
X147476475Y-86870373D01*
X147469305Y-86905057D01*
X147459438Y-86943023D01*
X147452343Y-86965971D01*
X147428375Y-87014157D01*
X147390786Y-87058328D01*
X147339966Y-87098254D01*
X147276306Y-87133707D01*
X147200196Y-87164458D01*
X147112026Y-87190278D01*
X147044730Y-87205027D01*
X147032651Y-87207300D01*
X147020712Y-87209328D01*
X147008065Y-87211124D01*
X146993861Y-87212700D01*
X146977251Y-87214069D01*
X146957387Y-87215244D01*
X146933421Y-87216236D01*
X146904503Y-87217059D01*
X146869784Y-87217725D01*
X146828417Y-87218247D01*
X146779552Y-87218636D01*
X146722340Y-87218906D01*
X146655934Y-87219069D01*
X146579484Y-87219138D01*
X146492142Y-87219124D01*
X146393058Y-87219042D01*
X146281385Y-87218902D01*
X146156274Y-87218718D01*
X146120389Y-87218663D01*
X146009997Y-87218475D01*
X145903185Y-87218258D01*
X145800904Y-87218016D01*
X145704107Y-87217753D01*
X145613744Y-87217473D01*
X145530767Y-87217179D01*
X145456127Y-87216875D01*
X145390777Y-87216566D01*
X145335666Y-87216253D01*
X145291748Y-87215942D01*
X145259973Y-87215636D01*
X145241293Y-87215339D01*
X145237200Y-87215197D01*
X145115165Y-87206598D01*
X145006173Y-87196104D01*
X144910469Y-87183756D01*
X144828299Y-87169593D01*
X144759907Y-87153656D01*
X144705540Y-87135983D01*
X144679473Y-87124422D01*
X144626141Y-87089694D01*
X144578902Y-87043753D01*
X144540071Y-86989400D01*
X144511965Y-86929435D01*
X144507750Y-86916744D01*
X144504552Y-86905728D01*
X144501863Y-86894269D01*
X144499642Y-86881060D01*
X144497842Y-86864791D01*
X144496421Y-86844155D01*
X144495333Y-86817843D01*
X144494535Y-86784548D01*
X144493983Y-86742961D01*
X144493632Y-86691774D01*
X144493438Y-86629680D01*
X144493357Y-86555369D01*
X144493343Y-86490221D01*
X144493510Y-86390503D01*
X144494008Y-86303669D01*
X144494831Y-86229989D01*
X144495974Y-86169732D01*
X144497432Y-86123169D01*
X144499201Y-86090569D01*
X144501274Y-86072203D01*
X144501338Y-86071885D01*
X144520820Y-86011169D01*
X144552804Y-85952424D01*
X144595358Y-85899138D01*
X144599365Y-85895008D01*
X144630800Y-85866295D01*
X144665196Y-85841699D01*
X144704210Y-85820648D01*
X144749499Y-85802574D01*
X144802721Y-85786906D01*
X144865533Y-85773074D01*
X144939592Y-85760508D01*
X145023815Y-85748979D01*
X145040652Y-85746982D01*
X145058110Y-85745198D01*
X145077057Y-85743614D01*
X145098358Y-85742219D01*
X145122881Y-85741000D01*
X145151491Y-85739947D01*
X145185056Y-85739047D01*
X145224442Y-85738288D01*
X145270515Y-85737659D01*
X145324142Y-85737148D01*
X145386190Y-85736743D01*
X145457524Y-85736432D01*
X145539012Y-85736205D01*
X145631520Y-85736048D01*
X145735915Y-85735950D01*
X145853062Y-85735900D01*
X145983829Y-85735885D01*
X145988315Y-85735885D01*
X146122074Y-85735888D01*
X146242210Y-85735917D01*
X146349613Y-85736002D01*
X146445176Y-85736174D01*
X146529789Y-85736463D01*
X146604344Y-85736900D01*
X146669730Y-85737515D01*
X146726841Y-85738338D01*
X146776565Y-85739401D01*
X146819796Y-85740733D01*
X146857423Y-85742366D01*
X146890338Y-85744328D01*
X146919433Y-85746652D01*
X146945597Y-85749367D01*
X146969723Y-85752504D01*
X146992701Y-85756094D01*
X147015422Y-85760166D01*
X147038779Y-85764751D01*
X147063660Y-85769880D01*
X147079453Y-85773181D01*
X147161340Y-85792868D01*
X147233298Y-85815978D01*
X147299783Y-85843994D01*
X147316665Y-85852237D01*
X147362034Y-85879552D01*
X147399054Y-85912542D01*
X147428572Y-85952766D01*
X147451435Y-86001782D01*
X147468490Y-86061148D01*
X147480582Y-86132424D01*
X147483732Y-86159824D01*
X147486764Y-86199876D01*
X147488177Y-86242339D01*
X147488177Y-86242339D01*
X147488177Y-86242339D01*
G37*
X147488177Y-86242339D02*
X147487808Y-86280403D01*
X147486983Y-86294691D01*
X147482284Y-86352753D01*
X147017406Y-86391135D01*
X146936777Y-86397744D01*
X146860494Y-86403905D01*
X146789774Y-86409526D01*
X146725835Y-86414513D01*
X146669894Y-86418774D01*
X146623170Y-86422218D01*
X146586880Y-86424751D01*
X146562241Y-86426282D01*
X146550472Y-86426718D01*
X146549627Y-86426616D01*
X146548423Y-86419046D01*
X146546572Y-86399904D01*
X146544280Y-86372108D01*
X146541753Y-86338577D01*
X146539196Y-86302228D01*
X146536815Y-86265979D01*
X146534815Y-86232749D01*
X146533402Y-86205454D01*
X146532790Y-86187642D01*
X146532129Y-86185256D01*
X146529580Y-86183188D01*
X146524176Y-86181415D01*
X146514953Y-86179915D01*
X146500945Y-86178666D01*
X146481186Y-86177644D01*
X146454710Y-86176827D01*
X146420553Y-86176193D01*
X146377749Y-86175718D01*
X146325332Y-86175380D01*
X146262336Y-86175156D01*
X146187797Y-86175023D01*
X146100749Y-86174960D01*
X146000226Y-86174942D01*
X145991943Y-86174942D01*
X145451286Y-86174942D01*
X145451286Y-86472485D01*
X145451286Y-86770028D01*
X145990868Y-86770028D01*
X146530449Y-86770028D01*
X146535110Y-86710157D01*
X146537078Y-86676939D01*
X146538644Y-86635430D01*
X146539607Y-86591852D01*
X146539814Y-86565014D01*
X146539938Y-86528771D01*
X146540579Y-86504606D01*
X146542205Y-86490083D01*
X146545286Y-86482765D01*
X146550291Y-86480215D01*
X146556186Y-86479975D01*
X146569902Y-86480865D01*
X146595896Y-86483220D01*
X146632680Y-86486873D01*
X146678763Y-86491653D01*
X146732659Y-86497393D01*
X146792878Y-86503924D01*
X146857932Y-86511077D01*
X146926332Y-86518684D01*
X146996590Y-86526575D01*
X147067217Y-86534582D01*
X147136725Y-86542536D01*
X147203625Y-86550269D01*
X147266428Y-86557611D01*
X147323647Y-86564395D01*
X147373792Y-86570451D01*
X147415375Y-86575611D01*
X147446907Y-86579706D01*
X147466900Y-86582567D01*
X147473844Y-86583982D01*
X147476592Y-86593767D01*
X147478816Y-86615291D01*
X147480492Y-86645788D01*
X147481594Y-86682490D01*
X147482096Y-86722630D01*
X147481974Y-86763442D01*
X147481201Y-86802158D01*
X147479753Y-86836013D01*
X147477603Y-86862239D01*
X147476475Y-86870373D01*
X147469305Y-86905057D01*
X147459438Y-86943023D01*
X147452343Y-86965971D01*
X147428375Y-87014157D01*
X147390786Y-87058328D01*
X147339966Y-87098254D01*
X147276306Y-87133707D01*
X147200196Y-87164458D01*
X147112026Y-87190278D01*
X147044730Y-87205027D01*
X147032651Y-87207300D01*
X147020712Y-87209328D01*
X147008065Y-87211124D01*
X146993861Y-87212700D01*
X146977251Y-87214069D01*
X146957387Y-87215244D01*
X146933421Y-87216236D01*
X146904503Y-87217059D01*
X146869784Y-87217725D01*
X146828417Y-87218247D01*
X146779552Y-87218636D01*
X146722340Y-87218906D01*
X146655934Y-87219069D01*
X146579484Y-87219138D01*
X146492142Y-87219124D01*
X146393058Y-87219042D01*
X146281385Y-87218902D01*
X146156274Y-87218718D01*
X146120389Y-87218663D01*
X146009997Y-87218475D01*
X145903185Y-87218258D01*
X145800904Y-87218016D01*
X145704107Y-87217753D01*
X145613744Y-87217473D01*
X145530767Y-87217179D01*
X145456127Y-87216875D01*
X145390777Y-87216566D01*
X145335666Y-87216253D01*
X145291748Y-87215942D01*
X145259973Y-87215636D01*
X145241293Y-87215339D01*
X145237200Y-87215197D01*
X145115165Y-87206598D01*
X145006173Y-87196104D01*
X144910469Y-87183756D01*
X144828299Y-87169593D01*
X144759907Y-87153656D01*
X144705540Y-87135983D01*
X144679473Y-87124422D01*
X144626141Y-87089694D01*
X144578902Y-87043753D01*
X144540071Y-86989400D01*
X144511965Y-86929435D01*
X144507750Y-86916744D01*
X144504552Y-86905728D01*
X144501863Y-86894269D01*
X144499642Y-86881060D01*
X144497842Y-86864791D01*
X144496421Y-86844155D01*
X144495333Y-86817843D01*
X144494535Y-86784548D01*
X144493983Y-86742961D01*
X144493632Y-86691774D01*
X144493438Y-86629680D01*
X144493357Y-86555369D01*
X144493343Y-86490221D01*
X144493510Y-86390503D01*
X144494008Y-86303669D01*
X144494831Y-86229989D01*
X144495974Y-86169732D01*
X144497432Y-86123169D01*
X144499201Y-86090569D01*
X144501274Y-86072203D01*
X144501338Y-86071885D01*
X144520820Y-86011169D01*
X144552804Y-85952424D01*
X144595358Y-85899138D01*
X144599365Y-85895008D01*
X144630800Y-85866295D01*
X144665196Y-85841699D01*
X144704210Y-85820648D01*
X144749499Y-85802574D01*
X144802721Y-85786906D01*
X144865533Y-85773074D01*
X144939592Y-85760508D01*
X145023815Y-85748979D01*
X145040652Y-85746982D01*
X145058110Y-85745198D01*
X145077057Y-85743614D01*
X145098358Y-85742219D01*
X145122881Y-85741000D01*
X145151491Y-85739947D01*
X145185056Y-85739047D01*
X145224442Y-85738288D01*
X145270515Y-85737659D01*
X145324142Y-85737148D01*
X145386190Y-85736743D01*
X145457524Y-85736432D01*
X145539012Y-85736205D01*
X145631520Y-85736048D01*
X145735915Y-85735950D01*
X145853062Y-85735900D01*
X145983829Y-85735885D01*
X145988315Y-85735885D01*
X146122074Y-85735888D01*
X146242210Y-85735917D01*
X146349613Y-85736002D01*
X146445176Y-85736174D01*
X146529789Y-85736463D01*
X146604344Y-85736900D01*
X146669730Y-85737515D01*
X146726841Y-85738338D01*
X146776565Y-85739401D01*
X146819796Y-85740733D01*
X146857423Y-85742366D01*
X146890338Y-85744328D01*
X146919433Y-85746652D01*
X146945597Y-85749367D01*
X146969723Y-85752504D01*
X146992701Y-85756094D01*
X147015422Y-85760166D01*
X147038779Y-85764751D01*
X147063660Y-85769880D01*
X147079453Y-85773181D01*
X147161340Y-85792868D01*
X147233298Y-85815978D01*
X147299783Y-85843994D01*
X147316665Y-85852237D01*
X147362034Y-85879552D01*
X147399054Y-85912542D01*
X147428572Y-85952766D01*
X147451435Y-86001782D01*
X147468490Y-86061148D01*
X147480582Y-86132424D01*
X147483732Y-86159824D01*
X147486764Y-86199876D01*
X147488177Y-86242339D01*
X147488177Y-86242339D01*
G36*
X133485562Y-86690200D02*
X133229655Y-86951457D01*
X132973747Y-87212714D01*
X131925467Y-87212714D01*
X130877187Y-87212714D01*
X131132943Y-86951457D01*
X131388700Y-86690200D01*
X132437131Y-86690200D01*
X133485562Y-86690200D01*
X133485562Y-86690200D01*
X133485562Y-86690200D01*
G37*
X133485562Y-86690200D02*
X133229655Y-86951457D01*
X132973747Y-87212714D01*
X131925467Y-87212714D01*
X130877187Y-87212714D01*
X131132943Y-86951457D01*
X131388700Y-86690200D01*
X132437131Y-86690200D01*
X133485562Y-86690200D01*
X133485562Y-86690200D01*
G36*
X134485830Y-85735885D02*
X134186544Y-86027985D01*
X133887259Y-86320085D01*
X132845755Y-86320085D01*
X131804251Y-86320085D01*
X132098190Y-86026146D01*
X132392129Y-85732207D01*
X133438979Y-85734046D01*
X134485830Y-85735885D01*
X134485830Y-85735885D01*
X134485830Y-85735885D01*
G37*
X134485830Y-85735885D02*
X134186544Y-86027985D01*
X133887259Y-86320085D01*
X132845755Y-86320085D01*
X131804251Y-86320085D01*
X132098190Y-86026146D01*
X132392129Y-85732207D01*
X133438979Y-85734046D01*
X134485830Y-85735885D01*
X134485830Y-85735885D01*
D12*
X131573000Y-101807000D02*
X131573000Y-102267000D01*
X131663000Y-101807000D02*
X131713000Y-101807000D01*
X131613000Y-101837000D02*
X131663000Y-101807000D01*
X131593000Y-101857000D02*
X131613000Y-101837000D01*
X131573000Y-101927000D02*
X131593000Y-101857000D01*
X132013000Y-102267000D02*
X132063000Y-102237000D01*
X131913000Y-102267000D02*
X132013000Y-102267000D01*
X131873000Y-102237000D02*
X131913000Y-102267000D01*
X131853000Y-102167000D02*
X131873000Y-102237000D01*
X131853000Y-101897000D02*
X131853000Y-102167000D01*
X131883000Y-101837000D02*
X131853000Y-101897000D01*
X131923000Y-101807000D02*
X131883000Y-101837000D01*
X132023000Y-101807000D02*
X131923000Y-101807000D01*
X132063000Y-101847000D02*
X132023000Y-101807000D01*
X132083000Y-101917000D02*
X132063000Y-101847000D01*
X132083000Y-102037000D02*
X132083000Y-101917000D01*
X132083000Y-102037000D02*
X131853000Y-102037000D01*
X131333000Y-101897000D02*
X131333000Y-102267000D01*
X131303000Y-101837000D02*
X131333000Y-101897000D01*
X131263000Y-101807000D02*
X131303000Y-101837000D01*
X131163000Y-101807000D02*
X131263000Y-101807000D01*
X131113000Y-101837000D02*
X131163000Y-101807000D01*
X131173000Y-101997000D02*
X131123000Y-102027000D01*
X131293000Y-101997000D02*
X131173000Y-101997000D01*
X131333000Y-101967000D02*
X131293000Y-101997000D01*
X131283000Y-102267000D02*
X131333000Y-102227000D01*
X131163000Y-102267000D02*
X131283000Y-102267000D01*
X131113000Y-102227000D02*
X131163000Y-102267000D01*
X131093000Y-102167000D02*
X131113000Y-102227000D01*
X131093000Y-102097000D02*
X131093000Y-102167000D01*
X131123000Y-102027000D02*
X131093000Y-102097000D01*
X130543000Y-101807000D02*
X130643000Y-102267000D01*
X130643000Y-102267000D02*
X130733000Y-101927000D01*
X130733000Y-101927000D02*
X130833000Y-102267000D01*
X130833000Y-102267000D02*
X130933000Y-101807000D01*
X130353000Y-102237000D02*
X130313000Y-102267000D01*
X130313000Y-102267000D02*
X130203000Y-102267000D01*
X130203000Y-102267000D02*
X130163000Y-102237000D01*
X130163000Y-102237000D02*
X130143000Y-102207000D01*
X130143000Y-102207000D02*
X130113000Y-102137000D01*
X130113000Y-102137000D02*
X130113000Y-101937000D01*
X130113000Y-101937000D02*
X130143000Y-101867000D01*
X130143000Y-101867000D02*
X130163000Y-101837000D01*
X130163000Y-101837000D02*
X130223000Y-101797000D01*
X130223000Y-101797000D02*
X130293000Y-101797000D01*
X130293000Y-101797000D02*
X130353000Y-101837000D01*
X130353000Y-101567000D02*
X130353000Y-102267000D01*
X129833000Y-101927000D02*
X129853000Y-101857000D01*
X129853000Y-101857000D02*
X129873000Y-101837000D01*
X129873000Y-101837000D02*
X129923000Y-101807000D01*
X129923000Y-101807000D02*
X129973000Y-101807000D01*
X129833000Y-101807000D02*
X129833000Y-102267000D01*
X129383000Y-102027000D02*
X129353000Y-102097000D01*
X129353000Y-102097000D02*
X129353000Y-102167000D01*
X129353000Y-102167000D02*
X129373000Y-102227000D01*
X129373000Y-102227000D02*
X129423000Y-102267000D01*
X129423000Y-102267000D02*
X129543000Y-102267000D01*
X129543000Y-102267000D02*
X129593000Y-102227000D01*
X129593000Y-101967000D02*
X129553000Y-101997000D01*
X129553000Y-101997000D02*
X129433000Y-101997000D01*
X129433000Y-101997000D02*
X129383000Y-102027000D01*
X129373000Y-101837000D02*
X129423000Y-101807000D01*
X129423000Y-101807000D02*
X129523000Y-101807000D01*
X129523000Y-101807000D02*
X129563000Y-101837000D01*
X129563000Y-101837000D02*
X129593000Y-101897000D01*
X129593000Y-101897000D02*
X129593000Y-102267000D01*
X128923000Y-101877000D02*
X128943000Y-101837000D01*
X128943000Y-101837000D02*
X128993000Y-101807000D01*
X128993000Y-101807000D02*
X129073000Y-101807000D01*
X129073000Y-101807000D02*
X129113000Y-101837000D01*
X129113000Y-101837000D02*
X129133000Y-101897000D01*
X129133000Y-101897000D02*
X129133000Y-102267000D01*
X128923000Y-101567000D02*
X128923000Y-102267000D01*
X127873000Y-102037000D02*
X127643000Y-102037000D01*
X128093000Y-101867000D02*
X128113000Y-101837000D01*
X128113000Y-101837000D02*
X128153000Y-101807000D01*
X128153000Y-101807000D02*
X128243000Y-101807000D01*
X128243000Y-101807000D02*
X128283000Y-101837000D01*
X128283000Y-101837000D02*
X128303000Y-101897000D01*
X128303000Y-101897000D02*
X128303000Y-102267000D01*
X128093000Y-101807000D02*
X128093000Y-102267000D01*
X127873000Y-102037000D02*
X127873000Y-101917000D01*
X127873000Y-101917000D02*
X127853000Y-101847000D01*
X127853000Y-101847000D02*
X127813000Y-101807000D01*
X127813000Y-101807000D02*
X127713000Y-101807000D01*
X127713000Y-101807000D02*
X127673000Y-101837000D01*
X127673000Y-101837000D02*
X127643000Y-101897000D01*
X127643000Y-101897000D02*
X127643000Y-102167000D01*
X127643000Y-102167000D02*
X127663000Y-102237000D01*
X127663000Y-102237000D02*
X127703000Y-102267000D01*
X127703000Y-102267000D02*
X127803000Y-102267000D01*
X127803000Y-102267000D02*
X127853000Y-102237000D01*
X127213000Y-101837000D02*
X127253000Y-101807000D01*
X127253000Y-101807000D02*
X127353000Y-101807000D01*
X127353000Y-101807000D02*
X127393000Y-101837000D01*
X127393000Y-101837000D02*
X127423000Y-101867000D01*
X127423000Y-101867000D02*
X127443000Y-101927000D01*
X127443000Y-101927000D02*
X127443000Y-102147000D01*
X127443000Y-102147000D02*
X127423000Y-102207000D01*
X127423000Y-102207000D02*
X127403000Y-102237000D01*
X127403000Y-102237000D02*
X127363000Y-102267000D01*
X127363000Y-102267000D02*
X127263000Y-102267000D01*
X127263000Y-102267000D02*
X127213000Y-102237000D01*
X127213000Y-102507000D02*
X127213000Y-101807000D01*
X126903000Y-101807000D02*
X126823000Y-101807000D01*
X126823000Y-101807000D02*
X126783000Y-101837000D01*
X126783000Y-101837000D02*
X126763000Y-101867000D01*
X126763000Y-101867000D02*
X126733000Y-101937000D01*
X126823000Y-102267000D02*
X126903000Y-102267000D01*
X126903000Y-102267000D02*
X126953000Y-102237000D01*
X126953000Y-102237000D02*
X126973000Y-102207000D01*
X126973000Y-102207000D02*
X126993000Y-102137000D01*
X126993000Y-102137000D02*
X126993000Y-101937000D01*
X126993000Y-101937000D02*
X126973000Y-101877000D01*
X126973000Y-101877000D02*
X126953000Y-101847000D01*
X126953000Y-101847000D02*
X126903000Y-101807000D01*
X126733000Y-101937000D02*
X126733000Y-102137000D01*
X126733000Y-102137000D02*
X126753000Y-102197000D01*
X126753000Y-102197000D02*
X126773000Y-102227000D01*
X126773000Y-102227000D02*
X126823000Y-102267000D01*
D13*
G36*
X127899160Y-101432360D02*
X127924560Y-101417120D01*
X127982980Y-101381560D01*
X128066800Y-101325680D01*
X128165860Y-101259640D01*
X128264920Y-101193600D01*
X128346200Y-101140260D01*
X128402080Y-101102160D01*
X128427480Y-101089460D01*
X128440180Y-101094540D01*
X128485900Y-101117400D01*
X128554480Y-101152960D01*
X128595120Y-101173280D01*
X128656080Y-101198680D01*
X128689100Y-101206300D01*
X128694180Y-101196140D01*
X128717040Y-101147880D01*
X128752600Y-101066600D01*
X128798320Y-100957380D01*
X128854200Y-100830380D01*
X128910080Y-100695760D01*
X128968500Y-100556060D01*
X129024380Y-100421440D01*
X129072640Y-100302060D01*
X129113280Y-100205540D01*
X129138680Y-100136960D01*
X129148840Y-100109020D01*
X129146300Y-100101400D01*
X129113280Y-100070920D01*
X129059940Y-100030280D01*
X128940560Y-99933760D01*
X128823720Y-99788980D01*
X128752600Y-99623880D01*
X128729740Y-99438460D01*
X128750060Y-99268280D01*
X128816100Y-99105720D01*
X128930400Y-98958400D01*
X129070100Y-98849180D01*
X129232660Y-98780600D01*
X129413000Y-98757740D01*
X129585720Y-98778060D01*
X129753360Y-98844100D01*
X129900680Y-98955860D01*
X129964180Y-99026980D01*
X130050540Y-99176840D01*
X130098800Y-99334320D01*
X130103880Y-99374960D01*
X130096260Y-99550220D01*
X130045460Y-99720400D01*
X129951480Y-99870260D01*
X129821940Y-99994720D01*
X129806700Y-100004880D01*
X129748280Y-100050600D01*
X129707640Y-100081080D01*
X129677160Y-100106480D01*
X129900680Y-100644960D01*
X129936240Y-100728780D01*
X129997200Y-100876100D01*
X130050540Y-101003100D01*
X130093720Y-101104700D01*
X130124200Y-101170740D01*
X130136900Y-101198680D01*
X130136900Y-101201220D01*
X130157220Y-101203760D01*
X130197860Y-101188520D01*
X130274060Y-101152960D01*
X130322320Y-101127560D01*
X130380740Y-101099620D01*
X130406140Y-101089460D01*
X130429000Y-101102160D01*
X130482340Y-101137720D01*
X130563620Y-101191060D01*
X130660140Y-101254560D01*
X130751580Y-101318060D01*
X130835400Y-101373940D01*
X130896360Y-101412040D01*
X130926840Y-101429820D01*
X130931920Y-101429820D01*
X130957320Y-101414580D01*
X131005580Y-101373940D01*
X131079240Y-101305360D01*
X131183380Y-101201220D01*
X131198620Y-101185980D01*
X131284980Y-101099620D01*
X131353560Y-101025960D01*
X131399280Y-100975160D01*
X131417060Y-100952300D01*
X131417060Y-100952300D01*
X131401820Y-100921820D01*
X131363720Y-100860860D01*
X131307840Y-100774500D01*
X131239260Y-100675440D01*
X131061460Y-100416360D01*
X131157980Y-100172520D01*
X131188460Y-100096320D01*
X131226560Y-100007420D01*
X131254500Y-99941380D01*
X131269740Y-99913440D01*
X131295140Y-99903280D01*
X131363720Y-99888040D01*
X131460240Y-99867720D01*
X131574540Y-99847400D01*
X131686300Y-99827080D01*
X131785360Y-99806760D01*
X131856480Y-99794060D01*
X131889500Y-99786440D01*
X131897120Y-99781360D01*
X131904740Y-99766120D01*
X131907280Y-99733100D01*
X131909820Y-99672140D01*
X131912360Y-99578160D01*
X131912360Y-99438460D01*
X131912360Y-99423220D01*
X131909820Y-99293680D01*
X131907280Y-99187000D01*
X131904740Y-99120960D01*
X131899660Y-99093020D01*
X131899660Y-99093020D01*
X131869180Y-99085400D01*
X131798060Y-99070160D01*
X131699000Y-99052380D01*
X131579620Y-99029520D01*
X131572000Y-99026980D01*
X131455160Y-99004120D01*
X131356100Y-98983800D01*
X131284980Y-98968560D01*
X131257040Y-98958400D01*
X131249420Y-98950780D01*
X131226560Y-98905060D01*
X131193540Y-98831400D01*
X131152900Y-98742500D01*
X131114800Y-98648520D01*
X131081780Y-98564700D01*
X131058920Y-98503740D01*
X131051300Y-98475800D01*
X131053840Y-98473260D01*
X131071620Y-98445320D01*
X131112260Y-98384360D01*
X131168140Y-98300540D01*
X131236720Y-98198940D01*
X131241800Y-98191320D01*
X131310380Y-98092260D01*
X131366260Y-98005900D01*
X131401820Y-97947480D01*
X131417060Y-97919540D01*
X131417060Y-97917000D01*
X131394200Y-97886520D01*
X131343400Y-97830640D01*
X131269740Y-97754440D01*
X131183380Y-97665540D01*
X131155440Y-97640140D01*
X131056380Y-97543620D01*
X130990340Y-97482660D01*
X130947160Y-97449640D01*
X130926840Y-97442020D01*
X130926840Y-97442020D01*
X130896360Y-97459800D01*
X130832860Y-97500440D01*
X130749040Y-97558860D01*
X130647440Y-97627440D01*
X130639820Y-97632520D01*
X130540760Y-97701100D01*
X130456940Y-97756980D01*
X130398520Y-97797620D01*
X130370580Y-97812860D01*
X130368040Y-97812860D01*
X130327400Y-97800160D01*
X130256280Y-97774760D01*
X130167380Y-97741740D01*
X130075940Y-97703640D01*
X129992120Y-97668080D01*
X129928620Y-97640140D01*
X129898140Y-97622360D01*
X129898140Y-97622360D01*
X129887980Y-97586800D01*
X129870200Y-97510600D01*
X129849880Y-97409000D01*
X129824480Y-97287080D01*
X129821940Y-97266760D01*
X129799080Y-97147380D01*
X129781300Y-97048320D01*
X129766060Y-96979740D01*
X129758440Y-96951800D01*
X129743200Y-96949260D01*
X129684780Y-96944180D01*
X129595880Y-96941640D01*
X129486660Y-96941640D01*
X129374900Y-96941640D01*
X129265680Y-96944180D01*
X129171700Y-96946720D01*
X129103120Y-96951800D01*
X129075180Y-96956880D01*
X129075180Y-96959420D01*
X129065020Y-96997520D01*
X129047240Y-97071180D01*
X129026920Y-97175320D01*
X129004060Y-97297240D01*
X128998980Y-97320100D01*
X128976120Y-97436940D01*
X128955800Y-97536000D01*
X128943100Y-97602040D01*
X128935480Y-97629980D01*
X128922780Y-97635060D01*
X128874520Y-97655380D01*
X128795780Y-97688400D01*
X128696720Y-97729040D01*
X128468120Y-97820480D01*
X128186180Y-97629980D01*
X128160780Y-97612200D01*
X128059180Y-97543620D01*
X127977900Y-97487740D01*
X127919480Y-97449640D01*
X127896620Y-97436940D01*
X127894080Y-97436940D01*
X127866140Y-97462340D01*
X127810260Y-97515680D01*
X127734060Y-97589340D01*
X127645160Y-97675700D01*
X127581660Y-97741740D01*
X127502920Y-97820480D01*
X127454660Y-97873820D01*
X127426720Y-97906840D01*
X127419100Y-97927160D01*
X127421640Y-97942400D01*
X127439420Y-97970340D01*
X127480060Y-98031300D01*
X127538480Y-98117660D01*
X127607060Y-98216720D01*
X127662940Y-98300540D01*
X127723900Y-98394520D01*
X127762000Y-98460560D01*
X127777240Y-98493580D01*
X127772160Y-98506280D01*
X127754380Y-98562160D01*
X127718820Y-98645980D01*
X127678180Y-98745040D01*
X127579120Y-98966020D01*
X127434340Y-98993960D01*
X127345440Y-99011740D01*
X127223520Y-99034600D01*
X127104140Y-99057460D01*
X126921260Y-99093020D01*
X126913640Y-99768660D01*
X126941580Y-99781360D01*
X126969520Y-99788980D01*
X127038100Y-99804220D01*
X127134620Y-99824540D01*
X127251460Y-99844860D01*
X127347980Y-99862640D01*
X127447040Y-99882960D01*
X127518160Y-99895660D01*
X127548640Y-99903280D01*
X127558800Y-99913440D01*
X127581660Y-99961700D01*
X127617220Y-100037900D01*
X127657860Y-100129340D01*
X127695960Y-100223320D01*
X127731520Y-100312220D01*
X127754380Y-100378260D01*
X127764540Y-100411280D01*
X127751840Y-100439220D01*
X127713740Y-100497640D01*
X127660400Y-100578920D01*
X127591820Y-100677980D01*
X127525780Y-100774500D01*
X127467360Y-100858320D01*
X127429260Y-100919280D01*
X127411480Y-100947220D01*
X127421640Y-100965000D01*
X127459740Y-101013260D01*
X127533400Y-101089460D01*
X127645160Y-101198680D01*
X127662940Y-101216460D01*
X127749300Y-101300280D01*
X127822960Y-101368860D01*
X127876300Y-101414580D01*
X127899160Y-101432360D01*
X127899160Y-101432360D01*
G37*
X127899160Y-101432360D02*
X127924560Y-101417120D01*
X127982980Y-101381560D01*
X128066800Y-101325680D01*
X128165860Y-101259640D01*
X128264920Y-101193600D01*
X128346200Y-101140260D01*
X128402080Y-101102160D01*
X128427480Y-101089460D01*
X128440180Y-101094540D01*
X128485900Y-101117400D01*
X128554480Y-101152960D01*
X128595120Y-101173280D01*
X128656080Y-101198680D01*
X128689100Y-101206300D01*
X128694180Y-101196140D01*
X128717040Y-101147880D01*
X128752600Y-101066600D01*
X128798320Y-100957380D01*
X128854200Y-100830380D01*
X128910080Y-100695760D01*
X128968500Y-100556060D01*
X129024380Y-100421440D01*
X129072640Y-100302060D01*
X129113280Y-100205540D01*
X129138680Y-100136960D01*
X129148840Y-100109020D01*
X129146300Y-100101400D01*
X129113280Y-100070920D01*
X129059940Y-100030280D01*
X128940560Y-99933760D01*
X128823720Y-99788980D01*
X128752600Y-99623880D01*
X128729740Y-99438460D01*
X128750060Y-99268280D01*
X128816100Y-99105720D01*
X128930400Y-98958400D01*
X129070100Y-98849180D01*
X129232660Y-98780600D01*
X129413000Y-98757740D01*
X129585720Y-98778060D01*
X129753360Y-98844100D01*
X129900680Y-98955860D01*
X129964180Y-99026980D01*
X130050540Y-99176840D01*
X130098800Y-99334320D01*
X130103880Y-99374960D01*
X130096260Y-99550220D01*
X130045460Y-99720400D01*
X129951480Y-99870260D01*
X129821940Y-99994720D01*
X129806700Y-100004880D01*
X129748280Y-100050600D01*
X129707640Y-100081080D01*
X129677160Y-100106480D01*
X129900680Y-100644960D01*
X129936240Y-100728780D01*
X129997200Y-100876100D01*
X130050540Y-101003100D01*
X130093720Y-101104700D01*
X130124200Y-101170740D01*
X130136900Y-101198680D01*
X130136900Y-101201220D01*
X130157220Y-101203760D01*
X130197860Y-101188520D01*
X130274060Y-101152960D01*
X130322320Y-101127560D01*
X130380740Y-101099620D01*
X130406140Y-101089460D01*
X130429000Y-101102160D01*
X130482340Y-101137720D01*
X130563620Y-101191060D01*
X130660140Y-101254560D01*
X130751580Y-101318060D01*
X130835400Y-101373940D01*
X130896360Y-101412040D01*
X130926840Y-101429820D01*
X130931920Y-101429820D01*
X130957320Y-101414580D01*
X131005580Y-101373940D01*
X131079240Y-101305360D01*
X131183380Y-101201220D01*
X131198620Y-101185980D01*
X131284980Y-101099620D01*
X131353560Y-101025960D01*
X131399280Y-100975160D01*
X131417060Y-100952300D01*
X131417060Y-100952300D01*
X131401820Y-100921820D01*
X131363720Y-100860860D01*
X131307840Y-100774500D01*
X131239260Y-100675440D01*
X131061460Y-100416360D01*
X131157980Y-100172520D01*
X131188460Y-100096320D01*
X131226560Y-100007420D01*
X131254500Y-99941380D01*
X131269740Y-99913440D01*
X131295140Y-99903280D01*
X131363720Y-99888040D01*
X131460240Y-99867720D01*
X131574540Y-99847400D01*
X131686300Y-99827080D01*
X131785360Y-99806760D01*
X131856480Y-99794060D01*
X131889500Y-99786440D01*
X131897120Y-99781360D01*
X131904740Y-99766120D01*
X131907280Y-99733100D01*
X131909820Y-99672140D01*
X131912360Y-99578160D01*
X131912360Y-99438460D01*
X131912360Y-99423220D01*
X131909820Y-99293680D01*
X131907280Y-99187000D01*
X131904740Y-99120960D01*
X131899660Y-99093020D01*
X131899660Y-99093020D01*
X131869180Y-99085400D01*
X131798060Y-99070160D01*
X131699000Y-99052380D01*
X131579620Y-99029520D01*
X131572000Y-99026980D01*
X131455160Y-99004120D01*
X131356100Y-98983800D01*
X131284980Y-98968560D01*
X131257040Y-98958400D01*
X131249420Y-98950780D01*
X131226560Y-98905060D01*
X131193540Y-98831400D01*
X131152900Y-98742500D01*
X131114800Y-98648520D01*
X131081780Y-98564700D01*
X131058920Y-98503740D01*
X131051300Y-98475800D01*
X131053840Y-98473260D01*
X131071620Y-98445320D01*
X131112260Y-98384360D01*
X131168140Y-98300540D01*
X131236720Y-98198940D01*
X131241800Y-98191320D01*
X131310380Y-98092260D01*
X131366260Y-98005900D01*
X131401820Y-97947480D01*
X131417060Y-97919540D01*
X131417060Y-97917000D01*
X131394200Y-97886520D01*
X131343400Y-97830640D01*
X131269740Y-97754440D01*
X131183380Y-97665540D01*
X131155440Y-97640140D01*
X131056380Y-97543620D01*
X130990340Y-97482660D01*
X130947160Y-97449640D01*
X130926840Y-97442020D01*
X130926840Y-97442020D01*
X130896360Y-97459800D01*
X130832860Y-97500440D01*
X130749040Y-97558860D01*
X130647440Y-97627440D01*
X130639820Y-97632520D01*
X130540760Y-97701100D01*
X130456940Y-97756980D01*
X130398520Y-97797620D01*
X130370580Y-97812860D01*
X130368040Y-97812860D01*
X130327400Y-97800160D01*
X130256280Y-97774760D01*
X130167380Y-97741740D01*
X130075940Y-97703640D01*
X129992120Y-97668080D01*
X129928620Y-97640140D01*
X129898140Y-97622360D01*
X129898140Y-97622360D01*
X129887980Y-97586800D01*
X129870200Y-97510600D01*
X129849880Y-97409000D01*
X129824480Y-97287080D01*
X129821940Y-97266760D01*
X129799080Y-97147380D01*
X129781300Y-97048320D01*
X129766060Y-96979740D01*
X129758440Y-96951800D01*
X129743200Y-96949260D01*
X129684780Y-96944180D01*
X129595880Y-96941640D01*
X129486660Y-96941640D01*
X129374900Y-96941640D01*
X129265680Y-96944180D01*
X129171700Y-96946720D01*
X129103120Y-96951800D01*
X129075180Y-96956880D01*
X129075180Y-96959420D01*
X129065020Y-96997520D01*
X129047240Y-97071180D01*
X129026920Y-97175320D01*
X129004060Y-97297240D01*
X128998980Y-97320100D01*
X128976120Y-97436940D01*
X128955800Y-97536000D01*
X128943100Y-97602040D01*
X128935480Y-97629980D01*
X128922780Y-97635060D01*
X128874520Y-97655380D01*
X128795780Y-97688400D01*
X128696720Y-97729040D01*
X128468120Y-97820480D01*
X128186180Y-97629980D01*
X128160780Y-97612200D01*
X128059180Y-97543620D01*
X127977900Y-97487740D01*
X127919480Y-97449640D01*
X127896620Y-97436940D01*
X127894080Y-97436940D01*
X127866140Y-97462340D01*
X127810260Y-97515680D01*
X127734060Y-97589340D01*
X127645160Y-97675700D01*
X127581660Y-97741740D01*
X127502920Y-97820480D01*
X127454660Y-97873820D01*
X127426720Y-97906840D01*
X127419100Y-97927160D01*
X127421640Y-97942400D01*
X127439420Y-97970340D01*
X127480060Y-98031300D01*
X127538480Y-98117660D01*
X127607060Y-98216720D01*
X127662940Y-98300540D01*
X127723900Y-98394520D01*
X127762000Y-98460560D01*
X127777240Y-98493580D01*
X127772160Y-98506280D01*
X127754380Y-98562160D01*
X127718820Y-98645980D01*
X127678180Y-98745040D01*
X127579120Y-98966020D01*
X127434340Y-98993960D01*
X127345440Y-99011740D01*
X127223520Y-99034600D01*
X127104140Y-99057460D01*
X126921260Y-99093020D01*
X126913640Y-99768660D01*
X126941580Y-99781360D01*
X126969520Y-99788980D01*
X127038100Y-99804220D01*
X127134620Y-99824540D01*
X127251460Y-99844860D01*
X127347980Y-99862640D01*
X127447040Y-99882960D01*
X127518160Y-99895660D01*
X127548640Y-99903280D01*
X127558800Y-99913440D01*
X127581660Y-99961700D01*
X127617220Y-100037900D01*
X127657860Y-100129340D01*
X127695960Y-100223320D01*
X127731520Y-100312220D01*
X127754380Y-100378260D01*
X127764540Y-100411280D01*
X127751840Y-100439220D01*
X127713740Y-100497640D01*
X127660400Y-100578920D01*
X127591820Y-100677980D01*
X127525780Y-100774500D01*
X127467360Y-100858320D01*
X127429260Y-100919280D01*
X127411480Y-100947220D01*
X127421640Y-100965000D01*
X127459740Y-101013260D01*
X127533400Y-101089460D01*
X127645160Y-101198680D01*
X127662940Y-101216460D01*
X127749300Y-101300280D01*
X127822960Y-101368860D01*
X127876300Y-101414580D01*
X127899160Y-101432360D01*
D11*
X156761905Y-96452381D02*
X156761905Y-95452381D01*
X157000000Y-95452381D01*
X157142858Y-95500000D01*
X157238096Y-95595238D01*
X157285715Y-95690476D01*
X157333334Y-95880952D01*
X157333334Y-96023810D01*
X157285715Y-96214286D01*
X157238096Y-96309524D01*
X157142858Y-96404762D01*
X157000000Y-96452381D01*
X156761905Y-96452381D01*
X158285715Y-96452381D02*
X157714286Y-96452381D01*
X158000000Y-96452381D02*
X158000000Y-95452381D01*
X157904762Y-95595238D01*
X157809524Y-95690476D01*
X157714286Y-95738095D01*
X151833095Y-94857381D02*
X151833095Y-93857381D01*
X152404524Y-94857381D02*
X151975952Y-94285952D01*
X152404524Y-93857381D02*
X151833095Y-94428810D01*
X150261905Y-96452381D02*
X150261905Y-95452381D01*
X150500000Y-95452381D01*
X150642858Y-95500000D01*
X150738096Y-95595238D01*
X150785715Y-95690476D01*
X150833334Y-95880952D01*
X150833334Y-96023810D01*
X150785715Y-96214286D01*
X150738096Y-96309524D01*
X150642858Y-96404762D01*
X150500000Y-96452381D01*
X150261905Y-96452381D01*
X151214286Y-95547619D02*
X151261905Y-95500000D01*
X151357143Y-95452381D01*
X151595239Y-95452381D01*
X151690477Y-95500000D01*
X151738096Y-95547619D01*
X151785715Y-95642857D01*
X151785715Y-95738095D01*
X151738096Y-95880952D01*
X151166667Y-96452381D01*
X151785715Y-96452381D01*
X145333095Y-94857381D02*
X145333095Y-93857381D01*
X145904524Y-94857381D02*
X145475952Y-94285952D01*
X145904524Y-93857381D02*
X145333095Y-94428810D01*
X143761905Y-96452381D02*
X143761905Y-95452381D01*
X144000000Y-95452381D01*
X144142858Y-95500000D01*
X144238096Y-95595238D01*
X144285715Y-95690476D01*
X144333334Y-95880952D01*
X144333334Y-96023810D01*
X144285715Y-96214286D01*
X144238096Y-96309524D01*
X144142858Y-96404762D01*
X144000000Y-96452381D01*
X143761905Y-96452381D01*
X144666667Y-95452381D02*
X145285715Y-95452381D01*
X144952381Y-95833333D01*
X145095239Y-95833333D01*
X145190477Y-95880952D01*
X145238096Y-95928571D01*
X145285715Y-96023810D01*
X145285715Y-96261905D01*
X145238096Y-96357143D01*
X145190477Y-96404762D01*
X145095239Y-96452381D01*
X144809524Y-96452381D01*
X144714286Y-96404762D01*
X144666667Y-96357143D01*
X138833095Y-94857381D02*
X138833095Y-93857381D01*
X139404524Y-94857381D02*
X138975952Y-94285952D01*
X139404524Y-93857381D02*
X138833095Y-94428810D01*
X137261905Y-96452381D02*
X137261905Y-95452381D01*
X137500000Y-95452381D01*
X137642858Y-95500000D01*
X137738096Y-95595238D01*
X137785715Y-95690476D01*
X137833334Y-95880952D01*
X137833334Y-96023810D01*
X137785715Y-96214286D01*
X137738096Y-96309524D01*
X137642858Y-96404762D01*
X137500000Y-96452381D01*
X137261905Y-96452381D01*
X138690477Y-95785714D02*
X138690477Y-96452381D01*
X138452381Y-95404762D02*
X138214286Y-96119048D01*
X138833334Y-96119048D01*
X132333095Y-94857381D02*
X132333095Y-93857381D01*
X132904524Y-94857381D02*
X132475952Y-94285952D01*
X132904524Y-93857381D02*
X132333095Y-94428810D01*
X130761905Y-96452381D02*
X130761905Y-95452381D01*
X131000000Y-95452381D01*
X131142858Y-95500000D01*
X131238096Y-95595238D01*
X131285715Y-95690476D01*
X131333334Y-95880952D01*
X131333334Y-96023810D01*
X131285715Y-96214286D01*
X131238096Y-96309524D01*
X131142858Y-96404762D01*
X131000000Y-96452381D01*
X130761905Y-96452381D01*
X132238096Y-95452381D02*
X131761905Y-95452381D01*
X131714286Y-95928571D01*
X131761905Y-95880952D01*
X131857143Y-95833333D01*
X132095239Y-95833333D01*
X132190477Y-95880952D01*
X132238096Y-95928571D01*
X132285715Y-96023810D01*
X132285715Y-96261905D01*
X132238096Y-96357143D01*
X132190477Y-96404762D01*
X132095239Y-96452381D01*
X131857143Y-96452381D01*
X131761905Y-96404762D01*
X131714286Y-96357143D01*
X125738095Y-94952381D02*
X125738095Y-93952381D01*
X126309524Y-94952381D02*
X125880952Y-94380952D01*
X126309524Y-93952381D02*
X125738095Y-94523810D01*
X165123810Y-91002381D02*
X165123810Y-90002381D01*
X166171429Y-90907143D02*
X166123810Y-90954762D01*
X165980953Y-91002381D01*
X165885715Y-91002381D01*
X165742857Y-90954762D01*
X165647619Y-90859524D01*
X165600000Y-90764286D01*
X165552381Y-90573810D01*
X165552381Y-90430952D01*
X165600000Y-90240476D01*
X165647619Y-90145238D01*
X165742857Y-90050000D01*
X165885715Y-90002381D01*
X165980953Y-90002381D01*
X166123810Y-90050000D01*
X166171429Y-90097619D01*
X167123810Y-91002381D02*
X166552381Y-91002381D01*
X166838095Y-91002381D02*
X166838095Y-90002381D01*
X166742857Y-90145238D01*
X166647619Y-90240476D01*
X166552381Y-90288095D01*
X166266667Y-100042857D02*
X166266667Y-99566666D01*
X166552381Y-100138095D02*
X165552381Y-99804762D01*
X166552381Y-99471428D01*
X165552381Y-99280952D02*
X165552381Y-98709523D01*
X166552381Y-98995238D02*
X165552381Y-98995238D01*
X165552381Y-98519047D02*
X165552381Y-97947618D01*
X166552381Y-98233333D02*
X165552381Y-98233333D01*
X166552381Y-97614285D02*
X165552381Y-97614285D01*
X166552381Y-97138095D02*
X165552381Y-97138095D01*
X166552381Y-96566666D01*
X165552381Y-96566666D01*
X166076190Y-95900000D02*
X166552381Y-95900000D01*
X165552381Y-96233333D02*
X166076190Y-95900000D01*
X165552381Y-95566666D01*
X165980952Y-95090476D02*
X165933333Y-95185714D01*
X165885714Y-95233333D01*
X165790476Y-95280952D01*
X165742857Y-95280952D01*
X165647619Y-95233333D01*
X165600000Y-95185714D01*
X165552381Y-95090476D01*
X165552381Y-94899999D01*
X165600000Y-94804761D01*
X165647619Y-94757142D01*
X165742857Y-94709523D01*
X165790476Y-94709523D01*
X165885714Y-94757142D01*
X165933333Y-94804761D01*
X165980952Y-94899999D01*
X165980952Y-95090476D01*
X166028571Y-95185714D01*
X166076190Y-95233333D01*
X166171429Y-95280952D01*
X166361905Y-95280952D01*
X166457143Y-95233333D01*
X166504762Y-95185714D01*
X166552381Y-95090476D01*
X166552381Y-94899999D01*
X166504762Y-94804761D01*
X166457143Y-94757142D01*
X166361905Y-94709523D01*
X166171429Y-94709523D01*
X166076190Y-94757142D01*
X166028571Y-94804761D01*
X165980952Y-94899999D01*
X165552381Y-93804761D02*
X165552381Y-94280952D01*
X166028571Y-94328571D01*
X165980952Y-94280952D01*
X165933333Y-94185714D01*
X165933333Y-93947618D01*
X165980952Y-93852380D01*
X166028571Y-93804761D01*
X166123810Y-93757142D01*
X166361905Y-93757142D01*
X166457143Y-93804761D01*
X166504762Y-93852380D01*
X166552381Y-93947618D01*
X166552381Y-94185714D01*
X166504762Y-94280952D01*
X166457143Y-94328571D01*
X165314334Y-86558381D02*
X164981000Y-86082190D01*
X164742905Y-86558381D02*
X164742905Y-85558381D01*
X165123858Y-85558381D01*
X165219096Y-85606000D01*
X165266715Y-85653619D01*
X165314334Y-85748857D01*
X165314334Y-85891714D01*
X165266715Y-85986952D01*
X165219096Y-86034571D01*
X165123858Y-86082190D01*
X164742905Y-86082190D01*
X166171477Y-85558381D02*
X165981000Y-85558381D01*
X165885762Y-85606000D01*
X165838143Y-85653619D01*
X165742905Y-85796476D01*
X165695286Y-85986952D01*
X165695286Y-86367905D01*
X165742905Y-86463143D01*
X165790524Y-86510762D01*
X165885762Y-86558381D01*
X166076239Y-86558381D01*
X166171477Y-86510762D01*
X166219096Y-86463143D01*
X166266715Y-86367905D01*
X166266715Y-86129810D01*
X166219096Y-86034571D01*
X166171477Y-85986952D01*
X166076239Y-85939333D01*
X165885762Y-85939333D01*
X165790524Y-85986952D01*
X165742905Y-86034571D01*
X165695286Y-86129810D01*
X164790524Y-88336381D02*
X164219095Y-88336381D01*
X164504809Y-88336381D02*
X164504809Y-87336381D01*
X164409571Y-87479238D01*
X164314333Y-87574476D01*
X164219095Y-87622095D01*
X165409571Y-87336381D02*
X165504810Y-87336381D01*
X165600048Y-87384000D01*
X165647667Y-87431619D01*
X165695286Y-87526857D01*
X165742905Y-87717333D01*
X165742905Y-87955429D01*
X165695286Y-88145905D01*
X165647667Y-88241143D01*
X165600048Y-88288762D01*
X165504810Y-88336381D01*
X165409571Y-88336381D01*
X165314333Y-88288762D01*
X165266714Y-88241143D01*
X165219095Y-88145905D01*
X165171476Y-87955429D01*
X165171476Y-87717333D01*
X165219095Y-87526857D01*
X165266714Y-87431619D01*
X165314333Y-87384000D01*
X165409571Y-87336381D01*
X166171476Y-88336381D02*
X166171476Y-87336381D01*
X166742905Y-88336381D02*
X166314333Y-87764952D01*
X166742905Y-87336381D02*
X166171476Y-87907810D01*
X158559667Y-106449762D02*
X158702524Y-106497381D01*
X158940620Y-106497381D01*
X159035858Y-106449762D01*
X159083477Y-106402143D01*
X159131096Y-106306905D01*
X159131096Y-106211667D01*
X159083477Y-106116429D01*
X159035858Y-106068810D01*
X158940620Y-106021190D01*
X158750143Y-105973571D01*
X158654905Y-105925952D01*
X158607286Y-105878333D01*
X158559667Y-105783095D01*
X158559667Y-105687857D01*
X158607286Y-105592619D01*
X158654905Y-105545000D01*
X158750143Y-105497381D01*
X158988239Y-105497381D01*
X159131096Y-105545000D01*
X159464429Y-105497381D02*
X159702524Y-106497381D01*
X159893001Y-105783095D01*
X160083477Y-106497381D01*
X160321572Y-105497381D01*
X161226334Y-106497381D02*
X160654905Y-106497381D01*
X160940619Y-106497381D02*
X160940619Y-105497381D01*
X160845381Y-105640238D01*
X160750143Y-105735476D01*
X160654905Y-105783095D01*
X189193908Y-107305076D02*
X189328595Y-107237732D01*
X189395939Y-107237733D01*
X189496955Y-107271405D01*
X189597970Y-107372420D01*
X189631641Y-107473435D01*
X189631641Y-107540778D01*
X189597970Y-107641794D01*
X189328595Y-107911168D01*
X188621488Y-107204061D01*
X188857191Y-106968359D01*
X188958206Y-106934687D01*
X189025550Y-106934687D01*
X189126565Y-106968359D01*
X189193908Y-107035702D01*
X189227580Y-107136717D01*
X189227580Y-107204061D01*
X189193908Y-107305076D01*
X188958206Y-107540778D01*
X189227580Y-106597970D02*
X189631641Y-106193908D01*
X190136717Y-107103046D02*
X189429610Y-106395939D01*
X190944840Y-106294924D02*
X190540778Y-106698985D01*
X190742809Y-106496955D02*
X190035702Y-105789848D01*
X190069374Y-105958206D01*
X190069374Y-106092893D01*
X190035702Y-106193908D01*
X173470981Y-89634095D02*
X173470981Y-89701439D01*
X173403638Y-89836126D01*
X173336294Y-89903469D01*
X173201607Y-89970813D01*
X173066920Y-89970813D01*
X172965905Y-89937141D01*
X172797546Y-89836126D01*
X172696530Y-89735110D01*
X172595515Y-89566752D01*
X172561843Y-89465737D01*
X172561843Y-89331050D01*
X172629188Y-89196362D01*
X172696531Y-89129019D01*
X172831218Y-89061675D01*
X172898561Y-89061675D01*
X174245431Y-88994332D02*
X173673011Y-88893317D01*
X173841370Y-89398393D02*
X173134263Y-88691286D01*
X173403638Y-88421912D01*
X173504653Y-88388240D01*
X173571996Y-88388240D01*
X173673012Y-88421912D01*
X173774027Y-88522927D01*
X173807698Y-88623942D01*
X173807698Y-88691286D01*
X173774027Y-88792301D01*
X173504652Y-89061675D01*
X173875042Y-88085195D02*
X173875042Y-88017851D01*
X173908714Y-87916836D01*
X174077073Y-87748477D01*
X174178088Y-87714805D01*
X174245431Y-87714805D01*
X174346447Y-87748477D01*
X174413790Y-87815820D01*
X174481133Y-87950507D01*
X174481133Y-88758630D01*
X174918867Y-88320897D01*
X174649492Y-87176058D02*
X174716836Y-87108714D01*
X174817851Y-87075042D01*
X174885195Y-87075042D01*
X174986210Y-87108714D01*
X175154569Y-87209729D01*
X175322928Y-87378088D01*
X175423943Y-87546447D01*
X175457615Y-87647462D01*
X175457615Y-87714805D01*
X175423943Y-87815820D01*
X175356599Y-87883164D01*
X175255584Y-87916836D01*
X175188240Y-87916836D01*
X175087225Y-87883164D01*
X174918867Y-87782149D01*
X174750507Y-87613790D01*
X174649492Y-87445431D01*
X174615820Y-87344416D01*
X174615820Y-87277073D01*
X174649492Y-87176058D01*
X175120897Y-86704653D02*
X175558630Y-86266920D01*
X175592301Y-86771996D01*
X175693317Y-86670981D01*
X175794332Y-86637309D01*
X175861675Y-86637309D01*
X175962691Y-86670981D01*
X176131050Y-86839340D01*
X176164721Y-86940355D01*
X176164721Y-87007698D01*
X176131050Y-87108714D01*
X175929019Y-87310745D01*
X175828004Y-87344416D01*
X175760660Y-87344416D01*
X175895347Y-86064890D02*
X175895347Y-85997546D01*
X175929019Y-85896531D01*
X176097378Y-85728172D01*
X176198393Y-85694500D01*
X176265737Y-85694500D01*
X176366752Y-85728172D01*
X176434095Y-85795515D01*
X176501439Y-85930202D01*
X176501439Y-86738325D01*
X176939172Y-86300592D01*
X154602031Y-101737732D02*
X154029610Y-101636717D01*
X154197970Y-102141794D02*
X153490863Y-101434687D01*
X153760237Y-101165312D01*
X153861253Y-101131641D01*
X153928596Y-101131641D01*
X154029611Y-101165312D01*
X154130626Y-101266328D01*
X154164298Y-101367343D01*
X154164298Y-101434686D01*
X154130626Y-101535701D01*
X153861252Y-101805076D01*
X155275466Y-101064297D02*
X154871405Y-101468359D01*
X155073435Y-101266328D02*
X154366328Y-100559222D01*
X154400000Y-100727580D01*
X154400000Y-100862267D01*
X154366328Y-100963282D01*
X155868359Y-103271404D02*
X155464298Y-103675465D01*
X155666328Y-103473435D02*
X154959222Y-102766328D01*
X154992893Y-102934687D01*
X154992893Y-103069374D01*
X154959222Y-103170389D01*
X156171405Y-102968359D02*
X155464298Y-102261252D01*
X156575466Y-102564297D02*
X155868359Y-102463282D01*
X155868359Y-101857190D02*
X155868359Y-102665313D01*
X149502031Y-101737732D02*
X148929610Y-101636717D01*
X149097970Y-102141794D02*
X148390863Y-101434687D01*
X148660237Y-101165312D01*
X148761253Y-101131641D01*
X148828596Y-101131641D01*
X148929611Y-101165312D01*
X149030626Y-101266328D01*
X149064298Y-101367343D01*
X149064298Y-101434686D01*
X149030626Y-101535701D01*
X148761252Y-101805076D01*
X149131641Y-100828595D02*
X149131641Y-100761252D01*
X149165313Y-100660237D01*
X149333672Y-100491877D01*
X149434688Y-100458206D01*
X149502031Y-100458206D01*
X149603046Y-100491877D01*
X149670390Y-100559221D01*
X149737733Y-100693908D01*
X149737733Y-101502030D01*
X150175466Y-101064297D01*
X150768359Y-103271404D02*
X150364298Y-103675465D01*
X150566328Y-103473435D02*
X149859222Y-102766328D01*
X149892893Y-102934687D01*
X149892893Y-103069374D01*
X149859222Y-103170389D01*
X151071405Y-102968359D02*
X150364298Y-102261252D01*
X151475466Y-102564297D02*
X150768359Y-102463282D01*
X150768359Y-101857190D02*
X150768359Y-102665313D01*
X144302031Y-101937732D02*
X143729610Y-101836717D01*
X143897970Y-102341794D02*
X143190863Y-101634687D01*
X143460237Y-101365312D01*
X143561253Y-101331641D01*
X143628596Y-101331641D01*
X143729611Y-101365312D01*
X143830626Y-101466328D01*
X143864298Y-101567343D01*
X143864298Y-101634686D01*
X143830626Y-101735701D01*
X143561252Y-102005076D01*
X143830626Y-100994924D02*
X144268359Y-100557190D01*
X144302030Y-101062267D01*
X144403046Y-100961251D01*
X144504061Y-100927579D01*
X144571405Y-100927579D01*
X144672421Y-100961252D01*
X144840779Y-101129610D01*
X144874451Y-101230626D01*
X144874451Y-101297969D01*
X144840779Y-101398984D01*
X144638748Y-101601015D01*
X144537733Y-101634687D01*
X144470390Y-101634687D01*
X145668359Y-103671404D02*
X145264298Y-104075465D01*
X145466328Y-103873435D02*
X144759222Y-103166328D01*
X144792893Y-103334687D01*
X144792893Y-103469374D01*
X144759222Y-103570389D01*
X145971405Y-103368359D02*
X145264298Y-102661252D01*
X146375466Y-102964297D02*
X145668359Y-102863282D01*
X145668359Y-102257190D02*
X145668359Y-103065313D01*
X139202031Y-101937732D02*
X138629610Y-101836717D01*
X138797970Y-102341794D02*
X138090863Y-101634687D01*
X138360237Y-101365312D01*
X138461253Y-101331641D01*
X138528596Y-101331641D01*
X138629611Y-101365312D01*
X138730626Y-101466328D01*
X138764298Y-101567343D01*
X138764298Y-101634686D01*
X138730626Y-101735701D01*
X138461252Y-102005076D01*
X139336718Y-100860236D02*
X139808123Y-101331641D01*
X138898985Y-100759222D02*
X139235703Y-101432657D01*
X139673436Y-100994924D01*
X140668359Y-103271404D02*
X140264298Y-103675465D01*
X140466328Y-103473435D02*
X139759222Y-102766328D01*
X139792893Y-102934687D01*
X139792893Y-103069374D01*
X139759222Y-103170389D01*
X140971405Y-102968359D02*
X140264298Y-102261252D01*
X141375466Y-102564297D02*
X140668359Y-102463282D01*
X140668359Y-101857190D02*
X140668359Y-102665313D01*
X134002031Y-101937732D02*
X133429610Y-101836717D01*
X133597970Y-102341794D02*
X132890863Y-101634687D01*
X133160237Y-101365312D01*
X133261253Y-101331641D01*
X133328596Y-101331641D01*
X133429611Y-101365312D01*
X133530626Y-101466328D01*
X133564298Y-101567343D01*
X133564298Y-101634686D01*
X133530626Y-101735701D01*
X133261252Y-102005076D01*
X133934688Y-100590862D02*
X133597970Y-100927580D01*
X133901015Y-101297969D01*
X133901015Y-101230626D01*
X133934687Y-101129610D01*
X134103046Y-100961251D01*
X134204061Y-100927579D01*
X134271405Y-100927579D01*
X134372421Y-100961252D01*
X134540779Y-101129610D01*
X134574451Y-101230626D01*
X134574451Y-101297969D01*
X134540779Y-101398984D01*
X134372420Y-101567343D01*
X134271405Y-101601015D01*
X134204061Y-101601015D01*
X135468359Y-103271404D02*
X135064298Y-103675465D01*
X135266328Y-103473435D02*
X134559222Y-102766328D01*
X134592893Y-102934687D01*
X134592893Y-103069374D01*
X134559222Y-103170389D01*
X135771405Y-102968359D02*
X135064298Y-102261252D01*
X136175466Y-102564297D02*
X135468359Y-102463282D01*
X135468359Y-101857190D02*
X135468359Y-102665313D01*
M02*
