M48
;DRILL file {KiCad 4.0.3-stable} date 10/29/16 15:55:34
;FORMAT={-:-/ absolute / inch / decimal}
FMAT,2
INCH,TZ
T1C0.032
T2C0.039
T3C0.040
%
G90
G05
M72
T1
X6.3894Y-3.665
X6.3894Y-3.765
X6.3894Y-3.865
X6.3894Y-3.965
X6.4157Y-4.1732
X6.5157Y-4.1732
X6.6157Y-4.1732
X6.6894Y-3.665
X6.6894Y-3.765
X6.6894Y-3.865
X6.6894Y-3.965
T2
X5.0394Y-3.6417
X5.1394Y-3.6417
X5.1836Y-4.1914
X5.2953Y-3.6417
X5.3836Y-4.1914
X5.3953Y-3.6417
X5.4664Y-3.9086
X5.5512Y-3.6417
X5.5836Y-4.1914
X5.6512Y-3.6417
X5.6664Y-3.9086
X5.7836Y-4.1914
X5.8071Y-3.6417
X5.8664Y-3.9086
X5.9071Y-3.6417
X5.9836Y-4.1914
X6.063Y-3.6417
X6.0664Y-3.9086
X6.163Y-3.6417
X6.2664Y-3.9086
X6.3157Y-3.4646
X6.7157Y-3.4646
T3
X6.8542Y-4.1577
X7.4365Y-3.5753
T0
M30
